<?xml version="1.0" standalone="no"?>
<!DOCTYPE svg PUBLIC "-//W3C//DTD SVG 20010904//EN"
 "http://www.w3.org/TR/2001/REC-SVG-20010904/DTD/svg10.dtd">
<svg version="1.0" xmlns="http://www.w3.org/2000/svg"
 width="1000.000000pt" height="1000.000000pt" viewBox="0 0 1000.000000 1000.000000"
 preserveAspectRatio="xMidYMid meet">
<metadata>
Created by potrace 1.14, written by Peter Selinger 2001-2017
</metadata>
<g transform="translate(0.000000,1000.000000) scale(0.100000,-0.100000)"
fill="#000000" stroke="none">
<path d="M4665 8979 c-2 -8 -7 -88 -9 -179 -2 -91 -4 -166 -5 -167 -1 0 -24
-1 -51 -1 -56 -1 -70 -6 -70 -28 0 -14 29 -18 93 -14 15 1 28 -2 28 -7 1 -4 3
-75 4 -158 4 -203 3 -195 20 -195 18 0 17 -17 19 185 l1 170 45 5 c25 3 44 8
43 13 -2 4 -3 12 -3 17 0 6 -20 10 -45 10 l-45 0 -1 103 c0 56 -1 134 -2 174
-2 69 -11 100 -22 72z"/>
<path d="M4161 8581 c-21 -14 -21 -57 0 -77 28 -25 69 -5 69 34 0 44 -33 65
-69 43z"/>
<path d="M5569 8473 c-1 -5 -3 -39 -4 -78 -2 -38 -4 -77 -4 -85 -1 -11 -15
-16 -53 -18 -90 -4 -88 -34 3 -35 43 0 49 -3 50 -21 4 -96 7 -135 14 -146 15
-24 25 13 25 92 l0 76 46 0 c28 0 50 6 55 13 12 19 4 22 -46 21 -54 -3 -55 0
-60 100 -4 91 -3 88 -15 88 -5 0 -11 -3 -11 -7z"/>
<path d="M8051 8397 c-14 -6 -26 -17 -28 -23 -8 -25 53 -76 156 -127 302 -153
488 -320 657 -592 38 -61 87 -173 119 -270 33 -99 60 -213 53 -220 -2 -2 -19
26 -38 63 -31 62 -109 187 -137 222 -7 8 -26 33 -43 55 -142 181 -372 363
-594 470 -112 53 -299 119 -375 131 -42 7 -71 -6 -71 -30 0 -42 379 -453 560
-608 216 -184 557 -410 662 -438 56 -16 62 -46 55 -274 -3 -105 -8 -200 -10
-211 -3 -11 -8 -52 -11 -90 -4 -39 -8 -80 -10 -90 -2 -11 -7 -45 -10 -76 -4
-31 -8 -65 -10 -75 -2 -11 -7 -46 -11 -79 -4 -33 -9 -69 -10 -80 -2 -11 -6
-47 -10 -80 -13 -126 -16 -128 -41 -40 -87 307 -278 598 -525 801 -104 85
-119 73 -113 -84 8 -231 79 -482 210 -745 l54 -108 -61 42 c-36 24 -74 42 -93
43 l-31 1 2 -60 c10 -249 201 -589 442 -790 l70 -58 -38 -18 c-74 -33 -141
-126 -141 -197 0 -22 -8 -30 -39 -43 -22 -9 -47 -29 -58 -45 -24 -37 -23 -119
2 -162 64 -107 244 -66 259 59 6 51 -25 114 -69 140 -23 14 -34 27 -31 38 2 9
7 30 11 46 14 67 97 126 167 119 72 -7 91 -25 151 -146 58 -114 122 -208 197
-288 22 -23 39 -44 38 -45 -2 -2 -36 -10 -76 -19 -96 -22 -188 -57 -290 -111
-284 -151 -505 -390 -737 -797 l-61 -106 2 141 c1 78 -1 176 -6 217 -39 371
-32 567 26 736 28 81 29 94 11 94 -19 0 -141 -126 -188 -195 -94 -136 -170
-336 -185 -487 -19 -176 -4 -285 65 -501 57 -178 70 -225 77 -275 2 -20 7 -49
10 -64 5 -27 -42 -128 -113 -240 -12 -21 -23 -40 -23 -43 0 -13 -160 -255
-169 -255 -3 0 -13 15 -21 33 -21 45 -85 86 -145 93 -28 4 -64 17 -80 29 -82
61 -179 44 -222 -38 -20 -39 -13 -124 13 -160 43 -59 148 -75 207 -31 35 25
66 88 62 124 -4 27 -3 27 35 18 51 -13 90 -56 97 -105 5 -38 3 -41 -94 -138
-128 -130 -178 -170 -319 -253 -121 -71 -319 -143 -439 -158 l-39 -5 49 50
c105 106 156 216 260 556 61 197 118 300 227 408 38 38 67 71 63 75 -11 12
-146 -18 -209 -47 -277 -126 -507 -429 -531 -702 -3 -35 -8 -95 -10 -134 -6
-92 -35 -148 -100 -192 -47 -33 -52 -34 -116 -29 -36 4 -86 9 -110 14 -80 13
-199 9 -209 -8 -15 -23 -12 -30 23 -64 34 -34 122 -68 210 -81 38 -6 48 -12
53 -30 8 -33 -5 -68 -22 -61 -36 14 -110 16 -133 4 -59 -32 -84 -121 -52 -182
28 -51 102 -73 162 -49 49 19 81 63 81 111 0 20 9 56 19 79 11 24 19 57 19 75
l0 33 117 -1 c386 -5 774 145 1060 411 77 71 85 76 125 74 62 -2 112 -16 197
-55 41 -19 102 -44 135 -56 79 -26 221 -32 308 -12 75 18 195 71 202 90 3 8 2
14 -2 14 -69 3 -142 9 -161 14 -35 8 -106 44 -169 86 -71 47 -168 89 -227 97
-79 10 -40 19 72 16 267 -8 346 -5 431 16 154 38 281 117 361 224 54 71 123
198 117 214 -8 20 -35 15 -68 -12 -88 -74 -168 -92 -423 -94 -109 -1 -201 -4
-204 -6 -4 -1 -27 -6 -53 -9 -56 -8 -155 -48 -215 -87 -48 -31 -52 -30 -24 9
30 45 104 183 276 516 94 184 151 284 223 394 33 51 37 53 71 49 53 -7 70 -16
86 -48 28 -54 14 -117 -21 -89 -8 8 -30 11 -53 7 -104 -14 -163 -129 -111
-215 38 -61 138 -85 196 -47 54 35 76 112 48 167 -12 23 -13 36 -5 60 15 43
14 104 -4 137 -18 37 -71 81 -95 81 -10 0 -21 4 -24 8 -8 13 103 14 175 3 96
-16 155 -18 219 -9 165 22 328 121 421 254 24 35 26 44 16 58 -12 16 -15 16
-54 1 -46 -18 -99 -20 -313 -11 -84 4 -150 2 -173 -5 -22 -6 -41 -9 -43 -7 -9
9 171 130 253 172 75 37 162 72 170 68 2 -1 21 5 43 13 22 8 44 14 48 14 4 0
25 3 47 6 22 3 56 7 75 9 152 17 184 28 192 67 4 19 -38 66 -127 144 -95 82
-129 118 -187 200 -150 211 -227 476 -231 801 -1 117 8 322 17 370 2 10 7 50
11 87 3 37 8 78 11 90 2 12 6 42 8 67 21 198 33 226 112 256 85 32 146 -12
158 -115 5 -40 4 -41 -22 -38 -118 17 -176 -154 -77 -226 33 -24 112 -26 146
-4 70 47 72 171 3 208 -18 9 -23 18 -18 33 12 37 7 113 -11 149 -22 48 -59 70
-123 77 l-53 5 38 55 c204 291 386 731 447 1080 3 19 8 46 11 60 3 14 8 45 11
70 3 25 7 52 9 60 2 8 7 57 10 108 6 95 -1 122 -31 122 -39 0 -189 -177 -274
-325 -47 -82 -61 -109 -124 -247 -33 -73 -72 -183 -111 -313 -19 -60 -35 -100
-36 -87 -1 12 -2 25 -3 30 -1 4 -6 39 -11 77 -5 39 -9 72 -10 75 0 3 -9 41
-19 85 -44 193 -159 443 -260 566 -11 14 -32 41 -46 59 -14 19 -61 71 -105
116 -125 126 -254 220 -396 288 -152 72 -235 90 -288 63z"/>
<path d="M1822 8375 c-96 -27 -320 -143 -371 -193 -8 -7 -26 -21 -40 -30 -78
-51 -246 -235 -335 -367 -86 -127 -191 -366 -210 -475 -2 -14 -9 -45 -15 -70
-5 -25 -13 -74 -17 -110 -4 -36 -8 -74 -9 -85 -1 -11 -3 -31 -5 -45 -1 -14 -3
-20 -5 -15 -2 6 -22 71 -46 145 -107 342 -237 587 -415 779 -57 62 -89 76
-113 47 -11 -13 -9 -91 4 -176 2 -14 7 -50 10 -80 4 -30 8 -57 10 -60 2 -3 6
-26 10 -50 9 -62 68 -286 103 -395 79 -242 206 -498 348 -703 24 -35 44 -65
44 -67 0 -3 -20 -5 -44 -5 -53 0 -104 -31 -129 -80 -14 -28 -17 -49 -13 -102
4 -60 3 -69 -14 -78 -58 -31 -65 -140 -13 -192 78 -77 216 -18 215 92 -1 71
-51 122 -120 124 -36 1 -37 2 -34 36 6 62 34 103 81 119 39 12 45 11 96 -13
64 -32 70 -44 89 -193 3 -24 8 -61 11 -83 11 -74 15 -105 20 -158 4 -29 8 -61
10 -70 8 -45 18 -229 18 -337 0 -273 -42 -474 -143 -680 -66 -134 -129 -214
-269 -342 -65 -60 -121 -115 -123 -125 -3 -9 0 -27 6 -40 12 -25 39 -32 161
-43 252 -23 465 -109 644 -262 l26 -23 -35 8 c-35 7 -171 8 -365 2 -75 -2
-109 1 -137 13 -34 14 -39 14 -53 1 -13 -14 -12 -20 14 -57 86 -124 233 -218
386 -248 54 -11 154 -13 195 -4 14 3 49 7 78 11 29 3 63 7 75 10 12 2 37 1 56
-2 l33 -7 -43 -19 c-79 -34 -119 -130 -86 -207 13 -31 13 -38 0 -58 -11 -16
-14 -39 -11 -74 16 -159 250 -157 271 3 6 49 -24 111 -68 138 -35 21 -94 26
-125 10 -44 -23 -31 94 14 123 23 15 45 20 82 18 29 -1 140 -178 274 -436 123
-237 211 -400 277 -512 l25 -43 -67 39 c-61 36 -111 56 -190 76 -16 5 -129 9
-250 10 -172 2 -234 6 -285 19 -62 17 -119 45 -148 73 -28 27 -49 33 -62 18
-11 -13 -8 -25 15 -68 88 -163 179 -258 314 -326 24 -13 51 -24 60 -27 9 -2
41 -11 71 -20 55 -17 243 -23 415 -15 39 2 90 2 115 1 l45 -2 -63 -13 c-73
-16 -147 -48 -225 -98 -124 -80 -180 -100 -273 -98 -74 0 -71 -20 10 -58 99
-48 158 -60 276 -57 135 4 143 6 290 74 92 43 161 62 221 62 38 0 50 -5 70
-28 13 -16 55 -54 93 -87 190 -159 433 -277 676 -329 125 -26 139 -27 300 -31
l154 -3 2 -36 c1 -20 12 -53 23 -72 13 -22 19 -44 15 -58 -8 -35 21 -93 58
-116 44 -28 127 -23 162 9 51 48 51 144 0 192 -21 20 -36 24 -82 23 -31 0 -64
-3 -73 -7 -20 -10 -39 30 -28 59 6 17 21 24 66 32 94 17 168 49 203 89 31 35
31 36 13 55 -25 24 -87 29 -174 12 -138 -26 -193 -27 -235 -6 -52 27 -83 58
-101 100 -18 44 -19 48 -28 147 -8 103 -14 138 -30 203 -56 214 -231 432 -446
556 -98 56 -279 102 -279 71 0 -8 7 -18 16 -23 31 -17 108 -99 147 -156 52
-76 97 -177 136 -301 119 -375 142 -423 258 -546 l54 -57 -48 9 c-249 46 -484
160 -677 329 -69 60 -167 167 -172 188 -13 49 49 128 106 134 20 3 23 -2 26
-37 7 -71 61 -122 139 -131 39 -4 57 -1 82 15 164 103 35 345 -137 256 -14 -7
-32 -21 -39 -29 -8 -9 -29 -16 -50 -16 -68 -1 -171 -70 -171 -116 0 -19 -10
-18 -27 4 -44 56 -151 226 -217 343 l-77 137 6 58 c8 73 24 139 80 319 55 179
66 235 69 348 6 244 -77 492 -230 686 -71 90 -150 159 -165 144 -6 -6 -3 -25
9 -54 69 -164 82 -383 45 -744 -8 -85 -10 -313 -2 -357 3 -21 5 -38 4 -38 -2
0 -22 35 -46 77 -58 108 -167 279 -236 371 -85 114 -274 298 -378 368 -177
119 -392 208 -518 214 -4 0 13 21 38 48 64 65 158 208 208 314 37 77 47 91 82
108 54 26 114 21 160 -14 47 -36 65 -65 71 -117 5 -41 3 -45 -25 -57 -45 -20
-65 -58 -66 -124 0 -49 4 -61 29 -87 35 -37 70 -50 123 -46 77 6 126 61 126
141 0 58 -30 105 -81 128 -27 13 -41 25 -38 33 7 17 -29 111 -52 138 -25 30
-74 63 -106 71 -27 6 -27 6 36 62 86 76 152 146 206 216 102 132 207 352 227
476 3 19 8 42 10 50 14 53 14 108 1 119 -16 14 -65 -4 -121 -44 -16 -12 -36
-25 -43 -29 -7 -5 7 33 33 83 128 256 201 517 211 761 8 183 -12 182 -212 -9
-132 -127 -232 -266 -319 -446 -56 -115 -115 -280 -116 -324 0 -23 -1 -24 -8
-6 -5 11 -11 47 -15 80 -4 33 -9 71 -11 85 -2 14 -6 41 -9 60 -9 69 -19 135
-22 155 -2 10 -6 49 -10 85 -3 36 -7 67 -9 70 -2 3 -6 39 -10 80 -4 41 -9 84
-11 95 -2 11 -7 99 -10 195 -5 148 -4 181 10 213 9 20 23 37 32 37 46 0 372
201 513 316 9 7 43 35 76 61 193 154 445 415 595 614 44 59 47 70 25 89 -19
16 -82 4 -220 -42 -173 -56 -398 -180 -536 -293 -179 -147 -334 -338 -440
-542 -40 -78 -40 -78 -34 -33 31 225 168 513 326 685 21 22 45 49 56 61 79 91
265 222 436 308 91 46 122 67 138 93 18 29 20 37 8 48 -22 21 -89 25 -147 10z"/>
<path d="M5090 8370 c-8 -15 -6 -24 9 -39 25 -25 61 -17 61 13 0 44 -50 63
-70 26z"/>
<path d="M882 8338 c-15 -15 -15 -61 0 -76 7 -7 25 -12 40 -12 21 0 31 6 38
26 13 34 13 40 -6 58 -18 19 -55 21 -72 4z"/>
<path d="M4217 8294 c-4 -4 -7 -36 -7 -70 0 -59 -2 -64 -24 -70 -14 -3 -28 -4
-33 -1 -4 3 -19 1 -32 -4 -36 -14 -12 -31 43 -32 45 0 46 -1 46 -33 0 -18 3
-40 6 -48 10 -27 34 1 34 40 0 19 3 35 8 35 4 1 34 3 66 5 108 6 95 37 -16 38
l-58 1 -1 50 c-1 27 -2 59 -3 69 -1 20 -18 31 -29 20z"/>
<path d="M9103 8238 c-19 -25 -21 -46 -7 -67 27 -38 84 -22 84 24 0 41 -55 71
-77 43z"/>
<path d="M5012 8198 c-34 -34 6 -90 48 -68 35 19 20 80 -20 80 -9 0 -21 -5
-28 -12z"/>
<path d="M6457 8123 c-13 -12 -7 -42 11 -51 23 -12 42 -4 42 17 0 30 -35 52
-53 34z"/>
<path d="M3830 7980 c0 -5 5 -10 10 -10 6 0 10 5 10 10 0 6 -4 10 -10 10 -5 0
-10 -4 -10 -10z"/>
<path d="M6296 7977 c-26 -19 -19 -81 10 -85 44 -6 70 50 38 82 -19 19 -25 20
-48 3z"/>
<path d="M4817 7924 c-1 -1 -60 -4 -132 -8 -71 -3 -139 -8 -150 -10 -11 -2
-87 -7 -170 -11 -219 -11 -233 -12 -315 -20 -70 -6 -95 -10 -162 -20 -76 -11
-104 -50 -113 -155 -24 -282 -20 -1062 9 -1693 1 -42 0 -46 -11 -30 -18 23
-33 83 -43 161 -5 35 -11 66 -14 70 -14 13 -27 -18 -27 -64 0 -48 2 -61 17
-114 7 -24 7 -24 -10 -7 -52 52 -160 110 -243 132 -48 13 -59 13 -71 1 -11
-11 -3 -29 52 -114 36 -55 86 -126 112 -158 26 -31 40 -55 31 -51 -20 7 -95
28 -122 33 -11 2 -31 6 -45 9 -148 29 -337 38 -455 21 -171 -24 -292 -58 -437
-123 -47 -21 -58 -30 -58 -49 0 -13 3 -24 8 -25 4 0 16 -2 27 -4 11 -2 44 -7
74 -10 30 -3 57 -7 60 -9 3 -2 43 -7 89 -11 45 -3 90 -8 101 -10 35 -6 247
-17 368 -17 l121 -1 -58 -28 c-69 -32 -120 -68 -120 -84 0 -6 -53 -32 -117
-59 -415 -173 -670 -318 -796 -451 -44 -47 -51 -68 -45 -138 8 -94 88 -247
296 -562 69 -104 128 -192 131 -195 3 -3 20 -25 36 -50 17 -24 86 -123 154
-220 335 -473 456 -660 570 -882 22 -42 90 -106 126 -118 90 -30 156 -13 385
98 74 35 173 82 220 104 47 22 128 60 180 85 160 76 437 208 523 248 45 21 27
26 417 -96 295 -91 632 -195 745 -229 222 -67 312 -95 405 -125 240 -76 329
-72 411 19 27 29 43 66 94 206 57 157 86 218 361 770 277 554 320 645 399 830
117 274 127 385 44 468 -41 40 -237 140 -368 186 l-94 33 69 6 c137 12 267 45
277 71 7 17 -12 35 -44 42 -100 21 -191 33 -258 33 l-45 1 88 45 c137 70 234
145 334 259 47 55 54 85 20 87 -166 12 -405 -41 -589 -129 l-78 -37 20 30 c72
109 133 266 166 425 18 92 24 330 10 432 -65 465 -397 808 -797 822 -141 5
-274 -34 -354 -104 l-36 -32 0 28 c-2 115 -22 358 -31 375 -12 24 -74 46 -152
54 -37 3 -77 8 -88 10 -11 2 -50 7 -87 10 -37 4 -78 8 -92 10 -14 2 -61 7
-105 10 -44 4 -96 8 -115 10 -94 9 -497 24 -503 19z m1062 -168 c-8 -7 -140
-13 -144 -6 -2 4 7 6 21 6 14 -1 46 1 72 4 45 6 60 4 51 -4z m-211 -13 c-32
-2 -84 -2 -115 0 -32 2 -6 3 57 3 63 0 89 -1 58 -3z m-1004 -22 c-7 -8 -54 -9
-59 -2 -2 4 12 7 30 7 19 0 32 -3 29 -5z m96 3 c0 -8 -19 -13 -24 -6 -3 5 1 9
9 9 8 0 15 -2 15 -3z m90 2 c0 -2 -13 -6 -30 -8 -16 -3 -30 -1 -30 4 0 4 14 8
30 8 17 0 30 -2 30 -4z m128 -3 c-10 -2 -28 -2 -40 0 -13 2 -5 4 17 4 22 1 32
-1 23 -4z m1639 -523 c147 -68 236 -226 272 -480 9 -64 7 -335 -2 -376 -3 -12
-8 -37 -11 -55 -57 -348 -300 -647 -469 -578 -33 14 -87 65 -115 109 -9 14
-31 43 -49 66 -35 44 -39 54 -22 54 32 0 203 89 258 135 57 47 125 112 153
147 44 56 29 69 -71 63 -126 -7 -254 -56 -373 -142 l-47 -34 23 53 c41 92 60
231 37 267 -12 19 -125 -93 -180 -179 l-40 -61 4 98 c2 54 5 235 7 403 l3 305
70 0 c62 0 75 4 115 31 25 18 78 66 119 108 84 85 126 105 206 99 28 -2 78
-17 112 -33z m-1633 -995 c-4 -8 -7 -15 -9 -15 -2 0 -5 7 -9 15 -3 9 0 15 9
15 9 0 12 -6 9 -15z m-49 -15 c3 -5 1 -10 -4 -10 -6 0 -11 5 -11 10 0 6 2 10
4 10 3 0 8 -4 11 -10z"/>
<path d="M6393 6733 c-21 -8 -15 -41 8 -48 30 -10 57 18 39 39 -13 16 -25 18
-47 9z"/>
<path d="M7886 7224 c-37 -36 -1 -96 50 -86 51 9 70 55 36 85 -23 21 -66 22
-86 1z"/>
<path d="M2070 7179 c-100 -22 -112 -160 -17 -200 42 -18 103 3 127 44 47 77
-22 175 -110 156z"/>
<path d="M2430 7106 c0 -45 34 -46 42 -1 2 14 -3 21 -19 23 -19 3 -23 -1 -23
-22z"/>
<path d="M3079 6868 c0 -40 -1 -126 -2 -190 l-2 -118 -30 -5 c-16 -2 -50 -7
-74 -10 -43 -5 -68 -15 -40 -15 54 -2 135 -14 140 -22 3 -5 7 -55 8 -111 3
-89 6 -165 10 -189 1 -5 8 -8 16 -8 12 0 15 14 16 63 1 78 6 240 8 247 0 3 22
4 48 3 26 0 57 4 67 9 19 10 19 11 1 24 -10 8 -40 14 -66 14 -58 0 -56 -4 -59
155 -2 104 -5 193 -9 218 -1 4 -8 7 -16 7 -12 0 -15 -15 -16 -72z"/>
<path d="M2296 6865 c-25 -25 -29 -54 -12 -80 9 -14 21 -26 26 -26 6 -1 16 -2
23 -3 28 -4 57 26 57 59 0 54 -58 86 -94 50z"/>
<path d="M7875 6840 c-54 -21 -76 -85 -48 -140 42 -81 162 -64 179 26 14 78
-59 142 -131 114z"/>
<path d="M3471 6737 c-18 -18 -13 -45 9 -52 27 -8 40 1 40 29 0 26 -31 41 -49
23z"/>
<path d="M3340 6375 c0 -11 7 -15 23 -13 12 2 22 8 22 13 0 6 -10 11 -22 13
-16 2 -23 -2 -23 -13z"/>
<path d="M2538 3443 c-22 -6 -33 -40 -18 -58 18 -22 57 -18 70 5 6 11 8 25 5
30 -10 16 -38 27 -57 23z"/>
<path d="M4886 3227 c-39 -23 -62 -72 -52 -111 25 -98 156 -114 199 -24 44 93
-57 186 -147 135z"/>
<path d="M4504 3112 c-48 -32 -26 -105 35 -117 52 -10 83 78 39 109 -24 17
-56 20 -74 8z"/>
<path d="M5311 2952 c-76 -38 -100 -122 -56 -192 58 -92 178 -91 235 2 37 61
16 142 -49 185 -41 27 -84 29 -130 5z"/>
<path d="M4856 2811 c-6 -10 -14 -114 -17 -214 -1 -31 -5 -59 -8 -62 -4 -2
-37 -5 -74 -6 -48 -2 -71 -7 -82 -19 -29 -32 5 -45 128 -49 l27 -1 0 -82 c1
-131 24 -198 58 -164 16 16 28 94 27 174 -1 50 1 62 14 63 92 5 131 19 131 48
0 23 -19 31 -90 38 -30 3 -56 6 -57 7 -1 1 -5 47 -9 102 -4 54 -8 110 -9 124
-2 14 -3 31 -4 38 -1 14 -27 16 -35 3z"/>
</g>
</svg>
