<?xml version="1.0" encoding="utf-8"?>
<!-- Generator: Adobe Illustrator 26.5.0, SVG Export Plug-In . SVG Version: 6.00 Build 0)  -->
<svg version="1.1" id="Layer_1" xmlns="http://www.w3.org/2000/svg" xmlns:xlink="http://www.w3.org/1999/xlink" x="0px" y="0px"
	 viewBox="0 0 1805 1805" style="enable-background:new 0 0 1805 1805;" xml:space="preserve">
<style type="text/css">
	.st0{display:none;fill:#EFEAE7;}
	.st1{fill:#EDABB4;}
	.st2{enable-background:new    ;}
</style>
<rect class="st0" width="1805" height="1805"/>
<g>
	<path class="st1" d="M895.44,154.74c-337.5,0-611.11,273.61-611.11,611.11s273.61,611.11,611.11,611.11
		s611.11-273.61,611.11-611.11S1232.94,154.74,895.44,154.74z M895.44,1404.74c-352.78,0-638.89-286.11-638.89-638.89
		s286.11-638.89,638.89-638.89s638.89,286.11,638.89,638.89S1248.22,1404.74,895.44,1404.74z"/>
	<g>
		<path class="st1" d="M690.67,1012.12c-5.11,11.36-7.94,23.33-10.55,34.43c-0.48,2.06-0.96,4.09-1.44,6.08l27.11,14.49
			c1.25-4.65,2.35-9.27,3.4-13.75c2.26-9.62,4.46-18.93,7.89-27.15L690.67,1012.12z"/>
		<path class="st1" d="M673.83,1069.63c-3.06,8.57-7.13,16.02-13.69,21.89c-6.83,6.13-14.86,10.1-23.66,12.83l32.82,17.54
			c3.71-2.38,7.32-5.05,10.77-8.15c9.77-8.75,15.92-19.14,20.26-29.95L673.83,1069.63z"/>
		<path class="st1" d="M726.05,1011.45c0.35-0.39,0.68-0.79,1.05-1.16c13.51-14.01,33.01-15.66,55.61-17.21l-43.89-23.46
			c-11.91,3.68-23.33,9.68-33.22,19.95c-2.34,2.43-4.41,4.96-6.32,7.57L726.05,1011.45z"/>
		<path class="st1" d="M609.56,1109.54c-4.85,0.56-9.8,1.04-14.8,1.51c-12.89,1.22-26.51,2.51-39.74,5.76l44.5,23.78
			c16.43-1.56,34.06-3.4,50.64-9.36L609.56,1109.54z"/>
		<path class="st1" d="M856.89,885.08c-2.87,10.85-3.79,20.84-4.58,29.39c-1.02,11.02-1.78,18.94-5.41,25.41l26.3,14.06
			c6.53-11.92,7.72-24.74,8.83-36.72c0.5-5.38,1.04-10.86,2.04-16.45L856.89,885.08z"/>
		<path class="st1" d="M1204.25,412.17c-42.54-33.46-94.55-51.15-150.41-51.15c-61.85,0-123.18,22.19-173.94,61.25
			c-40.65-27.6-96.48-19.5-127.33,19.68c-15.61,19.84-22.56,44.57-19.56,69.63c3,25.07,15.58,47.47,35.43,63.07
			c1.15,0.9,2.42,1.5,3.71,2.02c-10.44,33.81-14.78,69.06-12.42,104.23c4.87,72.8,37.55,136.48,92.02,179.31
			c3.64,2.86,7.44,5.45,11.22,8.08c-0.05,0.09-0.1,0.18-0.15,0.27l31.96,18.45c32.8,15.95,69.17,24.34,107.38,24.34h0.01
			c43.91,0,87.57-11.18,127.38-31.62c0.78,1.48,1.7,2.92,3.01,4.11c17.54,16.02,39.96,24.7,63.58,24.7c1.47,0,2.94-0.04,4.43-0.1
			c25.23-1.16,48.5-12.07,65.51-30.73c34.23-37.52,32.38-95.32-3.39-130.75C1323.57,630.2,1302.03,489.11,1204.25,412.17z
			 M1053.84,390.87c49.09,0,94.72,15.48,131.95,44.76c99.01,77.9,108.79,231.23,21.81,341.81c-8.54,10.85-17.83,20.89-27.67,30.23
			c-27.8-45.99-146.27-222.35-356.15-275.78c7.18-12.78,15.37-25.16,24.65-36.96C899.69,429.78,976.48,390.87,1053.84,390.87z
			 M762.65,508.04c-2.05-17.14,2.7-34.06,13.38-47.64c19.34-24.57,53.05-31.31,79.96-17.75c-11.04,10.43-21.47,21.68-31.02,33.82
			c-17.42,22.14-31.55,46.08-42.2,71.12C771.58,537.2,764.48,523.36,762.65,508.04z M870.21,836.74
			c-36.57-28.76-61.82-68.43-73.62-114.28c89.2,41.7,156.07,105.25,200.89,158.85C950.16,880.35,906.23,865.08,870.21,836.74z
			 M1034.19,879.22c-49.26-62.68-130.21-144.36-243.73-192.09c-0.28-2.76-0.77-5.43-0.95-8.22c-1-14.92-0.6-29.85,1.03-44.68
			c157.35,50.07,257.88,174.7,296.93,231.59C1070.16,872.26,1052.28,876.74,1034.19,879.22z M1115.29,853.57
			c-38.9-57.77-147.03-195.82-319.72-249.13c3.55-15.49,8.51-30.73,14.84-45.55c0.94,0.46,1.94,0.85,3.01,1.11
			c205.82,50.92,323.21,233.49,343.43,267.33C1143.68,837.36,1129.78,846.18,1115.29,853.57z M1244.02,857.6
			c-11.65,12.76-27.56,20.24-44.82,21.02c-15.95,0.79-31.05-4.29-43.27-14.12c28.12-18.23,53.66-41.34,75.12-68.6
			c5.64-7.17,10.88-14.53,15.79-22C1266.2,798.3,1265.66,833.88,1244.02,857.6z"/>
		<path class="st1" d="M833.3,952.2c-2.13,1.16-4.49,2.31-7.18,3.46c-12.67,5.4-27.77,6.43-43.75,7.51
			c-5.39,0.37-10.93,0.76-16.51,1.33l47.67,25.48c8.22-1.39,16.38-3.48,24.31-6.86c10.64-4.54,18.58-9.74,24.57-15.36L833.3,952.2z"
			/>
		<path class="st1" d="M533.01,1124.63c-9.76,4.79-18.89,11.46-26.85,20.93c-5.31,6.32-4.49,15.73,1.83,21.04
			c2.8,2.35,6.2,3.49,9.59,3.49c4.26,0,8.49-1.81,11.44-5.32c10.39-12.38,24.35-17.66,40.58-20.58L533.01,1124.63z"/>
	</g>
	<g class="st2">
		<path class="st1" d="M174.8,1636.34c0.91-7.03,1.36-13.83,1.36-20.85c17.22-0.23,25.61-10.2,25.61-29.92
			c0-24.48-1.13-43.06-1.13-55.98c0-22.44,2.04-28.78,2.04-37.85c0-9.29-8.39-13.6-17.22-13.6c0.91-7.71,1.13-14.05,1.13-20.62
			c7.03-1.81,16.77-2.72,29.01-2.72h36.49c25.38,0,35.36,15.18,35.36,44.65c0,22.44-8.61,36.04-26.52,41.02
			c16.77,0.91,28.56,22.44,28.56,47.82c0,41.93-19.94,48.05-62.55,48.05H174.8z M236.22,1611.87c10.88,0,20.62-15.87,20.62-28.33
			c0-22.21-5.67-33.09-17.68-33.09c-4.99,0-8.84,0.23-11.33,1.13c0.45,4.08,0.68,11.33,0.68,21.53c0,6.12-0.68,20.4-1.81,35.81
			C230.33,1610.96,233.27,1611.87,236.22,1611.87z M244.15,1535.94c8.84,0,18.13-17.22,18.13-34.22c0-11.33-4.31-25.38-18.13-25.38
			H230.1c0.68,18.36,0.91,29.01,0.91,32.64c0,7.48-0.45,16.54-1.36,26.97H244.15z"/>
		<path class="st1" d="M309.19,1580.14c0-9.52,1.36-19.26,1.36-29.24c0-8.16-7.03-13.83-14.96-13.83c0.23-2.04,0.68-5.44,0.91-10.2
			c12.69-2.72,24.7-6.12,36.04-10.65c-0.68,30.6-0.91,52.81-0.91,66.63c0,32.18,5.89,39.66,16.32,39.66
			c9.97,0,14.73-9.75,14.73-29.01v-34c0-17.68-4.99-24.7-14.5-24.7c-0.23-1.59-0.45-3.17-0.45-4.99c0-1.36,0.23-2.72,0.45-4.08
			c10.88-3.17,23.57-6.8,38.08-10.65c0.23,18.36,0.23,32.86,0.23,44.2c0,31.05-0.68,34-0.68,42.38c0,10.43,4.08,17.45,12.01,21.08
			c0,4.76-0.45,12.92-5.44,12.92c-7.93,0-16.54-6.35-19.49-14.05c-8.16,8.39-17.68,12.69-28.56,12.69
			c-17.45,0-33.77-11.79-33.77-29.92C309.65,1596.23,309.19,1588.29,309.19,1580.14z"/>
		<path class="st1" d="M435.43,1625.69c9.97,0,20.17-7.25,20.17-17c0-5.89-4.31-11.56-12.69-17.45c-14.73-10.2-22.44-15.87-23.57-17
			c-8.61-7.93-12.92-17.45-12.92-28.1c0-18.36,16.32-34,30.37-34c25.16,0,38.53,12.24,38.53,28.56c0,9.75-6.35,18.13-15.86,18.13
			c-7.93,0-14.5-7.03-14.5-15.19c0-5.89,3.85-11.56,10.43-11.56c3.85,0,6.12,1.36,7.03,2.27c0.23-0.68,0.23-1.13,0.23-1.81
			c0-4.99-11.33-8.61-22.21-8.61c-6.8,0-16.54,7.25-16.54,14.05c0,12.01,5.67,19.94,26.97,31.96c15.41,8.84,25.61,14.96,25.61,31.73
			c0,16.77-10.43,35.36-32.18,35.36c-27.2,0-44.87-9.97-44.87-28.33c0-9.75,6.35-18.13,15.86-18.13c7.93,0,14.5,6.8,14.5,15.19
			c0,5.89-6.12,11.56-12.24,11.56c-2.04,0-4.08-2.04-4.76-2.27C413.9,1622.06,421.6,1625.69,435.43,1625.69z"/>
		<path class="st1" d="M535.37,1603.03c12.24-42.16,18.36-63.46,18.36-63.91c0-4.99-6.8-11.33-12.01-11.33
			c-0.45,0-1.13,0.23-2.04,0.45v-9.29c8.39-2.04,20.85-5.89,38.08-10.43c0.91,3.4,1.59,7.48,1.59,11.56c0,1.59-0.23,2.95-0.23,4.31
			c-2.95,8.61-35.13,90.88-41.93,107.65c-6.8,16.54-11.33,26.06-13.6,29.24c-7.25,10.2-15.86,15.41-26.29,15.41
			c-9.97,0-18.81-6.35-18.81-15.86c0-7.03,3.85-14.5,14.5-14.5c4.99,0,12.92,3.4,12.92,10.2c0,6.57-3.63,10.43-7.93,11.33
			c0.91,0.45,2.04,0.68,3.4,0.68c7.71,0,19.26-27.88,19.26-36.71c0-1.13-0.45-3.63-1.36-8.16c-6.8-31.05-15.64-56.21-20.17-75.47
			c-3.17-13.37-9.97-17.22-19.04-17.9c0.23-2.04,0.68-5.44,0.91-9.97c10.43-3.85,21.08-7.03,32.41-8.39
			C519.05,1544.33,527.21,1573.79,535.37,1603.03z"/>
		<path class="st1" d="M629.87,1636.34c0.91-7.03,1.36-13.83,1.36-20.85c17.22-0.23,25.61-10.2,25.61-29.92
			c0-24.48-1.13-43.06-1.13-55.98c0-22.44,2.04-28.78,2.04-37.85c0-9.29-8.39-13.6-17.22-13.6c0.91-7.71,1.13-14.05,1.13-20.62
			c7.03-1.81,16.77-2.72,29.01-2.72h36.49c25.38,0,35.36,15.18,35.36,44.65c0,22.44-8.61,36.04-26.52,41.02
			c16.77,0.91,28.56,22.44,28.56,47.82c0,41.93-19.94,48.05-62.55,48.05H629.87z M691.29,1611.87c10.88,0,20.62-15.87,20.62-28.33
			c0-22.21-5.67-33.09-17.68-33.09c-4.99,0-8.84,0.23-11.33,1.13c0.45,4.08,0.68,11.33,0.68,21.53c0,6.12-0.68,20.4-1.81,35.81
			C685.4,1610.96,688.34,1611.87,691.29,1611.87z M699.22,1535.94c8.84,0,18.13-17.22,18.13-34.22c0-11.33-4.31-25.38-18.13-25.38
			h-14.05c0.68,18.36,0.91,29.01,0.91,32.64c0,7.48-0.45,16.54-1.36,26.97H699.22z"/>
		<path class="st1" d="M780.81,1569.03c-0.68,7.48-0.91,12.69-0.91,15.41c0,25.38,5.89,38.08,17.22,38.08
			c8.84,0,16.54-7.25,23.12-21.76c1.59-0.23,3.17-0.45,4.76-0.45c1.36,0,2.95,0.23,4.31,0.45c-4.99,22.44-17,33.54-36.26,33.54
			c-25.61,0-38.53-22.21-38.53-66.63c0-31.05,16.09-53.71,41.93-53.71c23.57,0,37.17,15.64,37.17,39.89
			c0,7.48-0.68,12.46-2.27,15.18H780.81z M781.49,1554.53h29.92c0.45-1.81,0.45-3.85,0.45-5.44c0-17.22-4.99-26.06-14.73-26.06
			c-7.71,0-15.64,15.41-15.64,25.61V1554.53z"/>
		<path class="st1" d="M867.38,1569.03c-0.68,7.48-0.91,12.69-0.91,15.41c0,25.38,5.89,38.08,17.22,38.08
			c8.84,0,16.54-7.25,23.12-21.76c1.59-0.23,3.17-0.45,4.76-0.45c1.36,0,2.95,0.23,4.31,0.45c-4.99,22.44-17,33.54-36.26,33.54
			c-25.61,0-38.53-22.21-38.53-66.63c0-31.05,16.09-53.71,41.93-53.71c23.57,0,37.17,15.64,37.17,39.89
			c0,7.48-0.68,12.46-2.27,15.18H867.38z M868.06,1554.53h29.92c0.45-1.81,0.45-3.85,0.45-5.44c0-17.22-4.99-26.06-14.73-26.06
			c-7.71,0-15.64,15.41-15.64,25.61V1554.53z"/>
		<path class="st1" d="M1055.71,1599.4c0-21.76-31.96-39.44-56.21-59.83c-13.83-11.56-19.72-26.74-19.72-43.06
			c0-25.61,19.49-41.7,51.22-41.7c29.46,0,51.22,12.69,51.22,33.09c0,9.07-11.11,18.58-19.94,18.58c-11.11,0-24.02-7.71-24.02-17.22
			c0-7.71,4.76-13.83,13.6-13.83c-1.36-6.57-12.92-12.92-21.3-12.92c-10.65,0-20.17,11.33-20.17,21.98c0,3.85,1.81,15.18,7.48,22.21
			c15.18,18.81,37.85,31.96,53.49,48.27c9.07,9.29,13.37,19.94,13.37,31.96c0,36.94-25.16,57.57-63.01,57.57
			c-17.45,0-41.93-19.49-41.93-37.62c0-23.34,7.48-32.64,26.74-32.64c12.24,0,18.58,6.12,18.58,18.36
			c0,11.79-7.48,20.17-18.81,20.17c-3.17,0-7.71-0.23-11.11-2.04c3.17,11.33,12.46,18.13,26.74,18.13
			C1046.19,1627.73,1055.71,1619.12,1055.71,1599.4z"/>
		<path class="st1" d="M1127.77,1572.43c0,13.6,0.45,26.97,0.45,40.34c0,3.85,1.59,5.89,4.08,5.89c4.76,0,4.99-4.76,4.99-9.52
			c0-2.27-0.23-4.08-0.45-6.35c1.59-0.23,3.4-0.45,4.99-0.45c1.81,0,3.4,0.23,5.21,0.45c0.23,2.04,0.23,3.85,0.23,5.89
			c0,11.79-3.85,24.48-18.36,24.48c-23.12,0-25.84-18.58-25.84-41.47c0-19.04,0.23-39.21,0.91-59.38c-3.4-1.13-6.12-1.36-9.07-1.36
			c-1.81,0-3.85,0-6.12,0.23c0-1.36,1.13-11.33,2.04-11.33c20.4,0,31.96-16.32,31.96-39.66c2.72,0,5.89,0.23,8.16,0.45
			c0.45,5.44,0.68,10.88,0.68,16.32c0,6.8-0.23,13.37-0.68,19.49c3.17,0.45,7.71,1.13,13.83,2.27c-0.23,2.49-0.23,4.76-0.23,6.8
			s0,4.08,0.23,5.89c-2.72-0.23-5.44-0.45-8.39-0.45c-2.72,0-5.44,0.23-8.16,0.45C1127.77,1545.23,1127.77,1558.83,1127.77,1572.43z
			"/>
		<path class="st1" d="M1205.73,1625.46c0,2.04,0.23,4.31,0.45,6.35c-10.43-0.45-20.85-0.68-31.28-0.68
			c-8.16,0-16.32,0.23-24.48,0.68c-0.23-2.27-0.45-4.53-0.45-6.8c0-1.81,0.23-3.85,0.45-5.67c0.68,0.23,1.59,0.23,3.63,0.23
			c9.07,0,13.37-6.57,13.37-19.26c0-12.69-0.68-21.98-0.68-33.32c0-7.48,0.23-14.96,1.13-24.93c0-7.93-6.57-12.01-14.05-12.01
			c0-2.72,0-5.67-1.13-8.61c14.28-2.95,27.65-6.8,40.79-10.88c-1.81,29.69-2.72,59.61-2.72,90.88c0,12.69,2.95,19.26,13.15,19.26
			c0.91,0,1.59-0.23,2.27-0.45C1205.96,1622.06,1205.73,1623.65,1205.73,1625.46z M1159.73,1484.49c0-8.61,8.61-14.96,17.45-14.96
			c9.97,0,17.45,7.48,17.45,17.45c0,9.07-9.29,17.45-17.91,17.45C1167.66,1504.44,1159.73,1495.15,1159.73,1484.49z"/>
		<path class="st1" d="M1246.75,1572.43c0,13.6,0.45,26.97,0.45,40.34c0,3.85,1.59,5.89,4.08,5.89c4.76,0,4.99-4.76,4.99-9.52
			c0-2.27-0.23-4.08-0.45-6.35c1.59-0.23,3.4-0.45,4.99-0.45c1.81,0,3.4,0.23,5.21,0.45c0.23,2.04,0.23,3.85,0.23,5.89
			c0,11.79-3.85,24.48-18.36,24.48c-23.12,0-25.84-18.58-25.84-41.47c0-19.04,0.23-39.21,0.91-59.38c-3.4-1.13-6.12-1.36-9.07-1.36
			c-1.81,0-3.85,0-6.12,0.23c0-1.36,1.13-11.33,2.04-11.33c20.4,0,31.96-16.32,31.96-39.66c2.72,0,5.89,0.23,8.16,0.45
			c0.45,5.44,0.68,10.88,0.68,16.32c0,6.8-0.23,13.37-0.68,19.49c3.17,0.45,7.71,1.13,13.83,2.27c-0.23,2.49-0.23,4.76-0.23,6.8
			s0,4.08,0.23,5.89c-2.72-0.23-5.44-0.45-8.39-0.45c-2.72,0-5.44,0.23-8.16,0.45C1246.75,1545.23,1246.75,1558.83,1246.75,1572.43z
			"/>
		<path class="st1" d="M1320.18,1524.38c-16.54,0-24.02,11.79-24.02,43.51c0,41.7,4.99,57.11,17.68,57.11
			c9.52,0,14.73-2.04,23.8-17.45c3.63,1.59,6.57,3.85,8.84,6.35c-10.2,17.45-20.85,22.66-32.18,22.66
			c-27.42,0-42.61-25.38-42.61-68.9c0-27.88,17.9-55.07,39.21-55.07c20.4,0,38.08,11.79,38.08,28.1c0,9.52-6.35,17.68-15.18,17.68
			c-7.93,0-14.05-6.8-14.05-14.73c0-5.67,5.67-11.11,11.56-11.11c2.04,0,4.08,0.68,5.67,1.81
			C1336.95,1527.78,1331.74,1524.38,1320.18,1524.38z"/>
		<path class="st1" d="M1353.72,1631.81v-12.47h0.91c9.97,0,15.19-5.89,15.19-17.68v-28.78c0-14.5,1.36-44.87,1.36-94.73
			c0-6.35-6.12-10.88-13.83-10.88c0-4.08-0.45-5.89-1.13-8.84c9.97-2.27,24.02-5.44,41.7-10.65c-0.45,10.43-0.91,17.68-0.91,21.3
			c0,8.38,0.45,26.06,0.68,55.53c8.16-9.52,12.24-10.65,19.49-10.65c22.21,0,31.5,37.17,31.5,55.3c0,11.11-0.45,23.34-0.45,34.45
			c0,8.39,1.81,15.41,4.53,15.41c4.08,0,4.31-5.89,4.31-9.97c0-2.49,0-4.99-0.23-6.35c1.36-0.23,2.95-0.45,4.53-0.45
			c1.81,0,3.85,0.23,5.67,0.45c0.23,1.36,0.45,2.95,0.45,4.31c0,13.6-6.8,24.93-20.4,24.93c-19.49,0-23.57-9.75-23.57-29.46
			c0-9.52,0.91-18.58,0.91-27.42c0-3.85-0.23-7.48-0.68-11.33c-1.81-13.6-11.33-30.14-22.21-30.14c-3.17,0-5.44,1.81-7.03,5.44
			c-0.68,10.88-0.91,22.44-0.91,34c0,12.92,0.23,26.29,0.91,39.66c0.23,5.21,3.63,7.93,10.65,7.93c1.13,0,2.72,0,4.31-0.45v11.56
			H1353.72z"/>
		<path class="st1" d="M1494.91,1569.03c-0.68,7.48-0.91,12.69-0.91,15.41c0,25.38,5.89,38.08,17.22,38.08
			c8.84,0,16.54-7.25,23.12-21.76c1.59-0.23,3.17-0.45,4.76-0.45c1.36,0,2.95,0.23,4.31,0.45c-4.99,22.44-17,33.54-36.26,33.54
			c-25.61,0-38.53-22.21-38.53-66.63c0-31.05,16.09-53.71,41.93-53.71c23.57,0,37.17,15.64,37.17,39.89
			c0,7.48-0.68,12.46-2.27,15.18H1494.91z M1495.59,1554.53h29.92c0.45-1.81,0.45-3.85,0.45-5.44c0-17.22-4.99-26.06-14.73-26.06
			c-7.71,0-15.64,15.41-15.64,25.61V1554.53z"/>
		<path class="st1" d="M1589.64,1625.69c9.97,0,20.17-7.25,20.17-17c0-5.89-4.31-11.56-12.69-17.45
			c-14.73-10.2-22.44-15.87-23.57-17c-8.61-7.93-12.92-17.45-12.92-28.1c0-18.36,16.32-34,30.37-34c25.16,0,38.53,12.24,38.53,28.56
			c0,9.75-6.35,18.13-15.87,18.13c-7.93,0-14.5-7.03-14.5-15.19c0-5.89,3.85-11.56,10.43-11.56c3.85,0,6.12,1.36,7.03,2.27
			c0.23-0.68,0.23-1.13,0.23-1.81c0-4.99-11.33-8.61-22.21-8.61c-6.8,0-16.54,7.25-16.54,14.05c0,12.01,5.67,19.94,26.97,31.96
			c15.41,8.84,25.61,14.96,25.61,31.73c0,16.77-10.42,35.36-32.18,35.36c-27.2,0-44.87-9.97-44.87-28.33
			c0-9.75,6.35-18.13,15.86-18.13c7.93,0,14.5,6.8,14.5,15.19c0,5.89-6.12,11.56-12.24,11.56c-2.04,0-4.08-2.04-4.76-2.27
			C1568.11,1622.06,1575.81,1625.69,1589.64,1625.69z"/>
	</g>
</g>
</svg>
