<?xml version="1.0" encoding="utf-8"?>
<!-- Generator: Adobe Illustrator 26.5.0, SVG Export Plug-In . SVG Version: 6.00 Build 0)  -->
<svg version="1.1" id="Layer_1" xmlns="http://www.w3.org/2000/svg" xmlns:xlink="http://www.w3.org/1999/xlink" x="0px" y="0px"
	 viewBox="0 0 1805 1805" style="enable-background:new 0 0 1805 1805;" xml:space="preserve">
<style type="text/css">
	.st0{display:none;fill:#EFEAE7;}
	.st1{fill:#776789;}
</style>
<rect class="st0" width="1805" height="1805"/>
<g>
	<polygon class="st1" points="1112.88,1107.75 1105.04,1204.53 1121.85,1204.53 1113.26,1107.75 	"/>
	<path class="st1" d="M1442.8,1148.67l123.05-182.05h-339.16c9.2-16.43,18.91-35.09,29.17-56.35c6.82-11.68,14.08-23.25,21.23-34.67
		c26.11-41.68,50.79-81.07,50.79-118.13c0-15.4-2.27-39.81-5.5-68.3c7.22-21.05,36.01-105.86,49.51-159.84
		c13.48-53.95-0.28-113.8-7.66-145.96c-1.39-6.12-2.6-11.26-3.3-15.18c-1.06-5.79-1.94-19.88-2.99-36.2
		c-3.34-52.76-8.36-132.48-28.99-170.33c-24.88-45.66-50.24-72.82-100.74-62.16c-11.55,2.42-28.42,1.96-44.8,0.99
		c-7.98-0.46-15.92-0.94-23.6-0.94c-20.04,0-45.13,2.93-61.25,25.76c-5.54,7.83-9.54,15.33-12.96,22.63
		c-7.94-4.29-18.34-7.32-31.72-8.73c-9.9-1.05-17.84-1.52-24.97-1.52c-29.56,0-49.25,8.56-75.25,32.71
		c-10.38,9.65-16.54,20.54-20.59,31.96c-22.37-23.42-54.46-42.45-89.85-36.51c-38.58,6.44-56.46,36.27-70.8,60.25
		c-2.15,3.58-4.22,7.06-6.31,10.32c-10.12,15.92-12.45,46.37-11.13,78.37c-9.76-3.52-21.33-5.94-34.84-5.08
		c-27.65,1.63-41.22,12.51-52.48,26.74c-3.03,3.37-4.48,6.23-7.13,8.88c-0.61,0.61-1.49,2.64-4.77,7.5c-2.11,3.03-4.2,6.05-6.64,9.3
		c-6.49,8.64-8.99,21.64-9.17,36.45c-13.53,41.46-29.34,96.54-31.04,132.52c-1.25,26.2-5.24,71.59-9.5,119.65
		c-5.83,66.14-12.45,141.12-14.16,190.58c-1.36,39.38,3.96,83.8,10.5,125.3H239.16l123.05,182.05l-123.05,182.05h363.62
		c-1.09,29.62-1.28,55.43,0.23,72.85c0.68,7.7,1.27,16.04,1.89,24.88c4.9,68.65,12.29,172.4,76.85,253.16
		c13.73,17.16,36.66,26.22,66.31,26.22c76.43,0,191.14-58.99,266.82-137.2c38.65-39.96,84.22-102.32,81.91-172.7
		c-0.8-24.38-1.92-46.7-3.19-67.22h472.25L1442.8,1148.67z M1090.3,188.87c0.75-2.57,1.56-5.19,2.35-7.79
		c0.88-2.93,1.89-5.89,2.9-8.88c1.23-3.63,2.6-7.3,4.18-11.06c3.43-8.12,7.68-16.45,13.86-25.21c9.02-12.78,22.44-18.01,46.26-18.01
		c7.33,0,14.91,0.46,22.54,0.9c18.04,1.06,36.33,1.45,49.66-1.36c36.22-7.65,53.98,3.72,80.85,52.99
		c18.7,34.29,23.78,114.68,26.81,162.72c1.16,18.26,1.98,31.47,3.25,38.32c0.75,4.13,1.98,9.54,3.47,15.99
		c7,30.62,20.12,87.69,7.66,137.36c-9.04,36.23-25.12,86.64-36.77,121.83c-0.62-5.15-1.27-10.32-1.91-15.57
		c-4.91-39.74-9.98-80.85-11.92-109.1c-2.95-42.82-20.78-73.51-43.97-99.24c15.99-0.33,34.68-0.84,52.98-1.71
		c4.97-0.24,8.84-4.4,8.75-9.37c-0.13-4.97-4.2-8.95-9.17-8.95c-1.83,0-7.41,0-13.59-9.43c-17.79-27.12-19.02-98.95-2.37-137.23
		c1.54-3.54,0.72-7.66-2.09-10.31c-2.79-2.66-6.95-3.28-10.4-1.54l-8.66,4.4c-12.34,6.33-12.34,6.33-29.36,7.26l-11.63,0.68
		c-3.06,0.18-5.81,1.91-7.35,4.57c-12.8,22.11-31.69,35.54-45.55,43.09c-7.41-12.6-15.59-23.58-24.15-31.19
		c-2.6-3.19-5.15-6.07-7.66-8.4c1.93-11.81,3.98-39.81-17.73-51.65c-3.43-1.87-7-3.28-10.67-4.27c-3.1-0.84-6.31-1.21-9.52-1.47
		c-2.99-0.24-6.01-0.11-9.04,0.15c-6.66,0.59-13.31,2.29-19.79,5.13C1085.62,204.81,1087.95,196.96,1090.3,188.87z M1283.11,403.38
		c0.09,0.17,0.2,0.31,0.31,0.46c-15.64,0.48-30.22,0.75-41.81,0.9c-9.06-8.51-18.47-16.65-27.89-24.66
		c-5.21-16.81-13.55-39-23.89-59.63c15.15-8.23,35.23-22.52,50.04-45.84l6.73-0.39c13.92-0.77,18.87-1.17,25.62-3.94
		C1261.84,312.79,1263.69,373.76,1283.11,403.38z M938.87,264.68c1.87-8.01,3.14-15.99,4.36-23.84c0.35-2.22,0.7-4.36,1.05-6.51
		c0.84-5.15,1.76-10.1,2.88-14.87c3.15-13.53,8.09-25.58,18.94-35.65c22.66-21.03,37.92-27.8,62.79-27.8
		c6.49,0,13.79,0.46,23.03,1.43c14.21,1.5,22.28,4.58,26.77,7.26c-2.29,6.56-4.29,12.96-6.05,18.98
		c-4.22,14.52-7.87,27.07-16.25,39.15l-2.51,3.61c-23.16,33.37-49.42,71.2-32.73,93.48c0.02,0.04,0.05,0.06,0.07,0.09
		c2.64,5.39,7.61,9.87,11.88,12.87c8.01,5.68,19.64,10.53,30.9,11.63c5.9,1.43,11.52,2.31,16.54,2.82
		c-4.11,14.32-7.72,30.35-9.66,47.13c-0.37,3.15-0.53,6.36-0.77,9.55c-0.22,2.88-0.46,5.74-0.57,8.64
		c-0.15,0.28-0.29,0.57-0.42,0.84c-2.33,4.68-4.66,9.33-7.22,14.36c-6.22,12.18-12.91,25.3-19.6,40.05
		c-12.85,28.26-13.77,49.34-14.6,67.97c-0.66,14.8-1.27,28.79-7.74,45.46c-3.23,8.31-7.66,15.86-12.85,22.57
		c-1.36-26.35-4.9-70.63-5.21-73.66c-2.68-9.37-13.44-27.07-35.12-27.07c-1.36,0-2.88,0.46-4.29,0.61
		c-2.71,0.26-5.39,0.39-8.27,1.16c-0.33,0.09-0.57,0.17-0.88,0.24c-3.36,0.9-6.4,1.72-9.19,2.53
		c-24.19,6.97-28.64,11.64-32.03,33.04c-1.06,6.77-1.56,16.94-1.76,28.46c-0.02,1.78-0.06,3.54-0.07,5.37
		c-0.02,1.93-0.02,3.91-0.02,5.89c0,6,0.02,12.12,0.09,18.26c-1.71-6.56-3.06-13.75-4.05-21.45c-0.2-1.61-0.37-3.28-0.55-4.93
		c-0.15-1.45-0.33-2.88-0.46-4.35c-2.24-23.69-2.05-50.1-1.89-71.64c0.15-18.3,0.26-34.11-0.88-45.51
		c-1.65-16.61-0.24-40.21,3.19-64.88c0.42-3.01,0.86-6.01,1.34-9.06c0.48-3.03,0.97-6.05,1.5-9.06c5.3-30.16,13.2-59.78,21.93-78.32
		C934.38,281.27,936.94,272.97,938.87,264.68z M781.52,246.27c2.16-3.41,4.33-7.02,6.56-10.75c13.06-21.8,27.87-46.54,58.09-51.58
		c3.45-0.57,6.84-0.84,10.21-0.84c28.75,0,54.46,19.66,71.17,40.56c-0.9,4.79-1.69,9.59-2.44,14.36
		c-2.29,14.67-4.69,29.85-11.22,43.73c-9.5,20.19-17.97,51.71-23.54,83.73c-0.53,3.03-1.01,6.05-1.49,9.06
		c-0.48,3.04-0.92,6.05-1.32,9.06c-3.61,26.06-5.06,51.09-3.26,69.09c1.05,10.43,0.92,25.78,0.79,43.55
		c-0.18,24.06-0.35,50.44,2.02,74.47c-11,2.57-30.84,8.34-40.27,18.63c-0.53,0.57-0.55,1.36-0.73,2.09
		c-0.11,0.46-0.5,0.84-0.46,1.34c0.61,8.42,1.85,19.11,3.45,30.57c2.4,17.35,5.7,36.4,9.22,52.99c-3.87-1.38-7.94-2.99-12.23-4.82
		c-3.56-1.52-6.55-4.99-9.15-9.7c-1.82-3.26-3.39-7.22-4.82-11.57c-1.52-4.6-2.86-9.66-4.05-15.04c-2.82-12.65-4.9-26.77-6.75-39.68
		c-3.21-22.43-6.25-43.61-12.43-58.62c-9.32-22.61-12.84-49.91-16.89-81.53c-2.48-19.24-5.02-39.13-9.17-60.7
		c-1.65-8.55-3.08-17.05-4.31-25.43c-0.46-3.15-0.9-6.29-1.3-9.43c-0.35-2.6-0.64-5.17-0.94-7.74c-0.06-0.55-0.13-1.12-0.2-1.67
		c-0.55-4.93-1.06-9.81-1.47-14.56c-0.35-4-0.64-7.94-0.88-11.81C771.45,287.49,774.04,258.02,781.52,246.27z M663.69,373.1
		c3.06-4.09,5.78-7.98,8.4-11.72c0.28-0.39,0.61-0.83,0.86-1.21c1.1-1.56,2.09-2.99,3.12-4.44c2.13-3.03,4.2-5.89,6.22-8.42
		c2.55-3.15,5.1-5.83,7.85-8.23c7.33-6.42,16.23-10.2,31.03-11.08c1.47-0.07,2.9-0.13,4.29-0.13c12.62,0,22.87,3.32,30.7,7.11
		c0.37,4.35,0.77,8.67,1.23,12.95c0.33,3.15,0.7,6.31,1.06,9.39c0.39,3.19,0.79,6.31,1.21,9.41c1.58,11.53,3.36,22.26,5.1,31.36
		c4.05,21.01,6.56,40.62,9,59.58c4.22,32.9,7.88,61.32,18.12,86.16c5.32,12.89,8.18,32.97,11.24,54.24
		c1.58,11.06,3.25,22.15,5.26,32.73c-1.06-3.04-1.39-4.2-1.41-4.24c-0.11-0.39-0.28-0.75-0.48-1.1
		c-0.35-0.55-8.43-13.75-24.06-13.75c-3.32,0-6.75,0.62-10.2,1.83c-18.04,6.38-27.87,20.57-26.3,37.98
		c0.33,3.59,2.04,13.83,4.64,25.74c-7.43-8.4-14.25-19.25-19.25-31.78c-6.11-15.24-13.79-37.21-21.93-60.47
		c-8.23-23.53-16.74-47.84-24.55-67.92c-12.78-32.84-26.11-81.89-26.86-114.73C657.67,389.46,659.27,379.01,663.69,373.1z
		 M417.46,1297.21h-12.71V999.75h36.62l24.29,119.95h0.37V999.75h12.33v219.73h-0.37l-45.59-207.77h-14.95V1297.21z M506.02,1297.21
		H469.4l-24.29-122.57h-0.37v122.57H432.4v-219.35h0.37l45.59,207.4h14.95v-285.5h12.71V1297.21z M542.27,1297.21h-12.71V999.75
		h12.71V1297.21z M569.55,1297.21h-12.71V999.75h12.71V1297.21z M605.79,1297.21h-12.71V999.75h68.38v11.96h-55.68V1297.21z
		 M661.47,1132.78v11.96h-40.73v-118.08h40.73v11.96h-28.03v94.17H661.47z M661.47,1159.69v11.96h-28.03v125.56h-12.71v-137.52
		H661.47z M1001.66,1557.83c-72.61,75.03-181.66,131.62-253.65,131.62c-24.22,0-41.72-6.51-51.98-19.35
		c-60.99-76.28-67.86-172.64-72.87-243c-0.64-8.95-1.23-17.37-1.91-25.16c-1.46-16.79-1.26-42.08-0.17-71.24h454.12
		c1.29,20.67,2.43,43.18,3.23,67.79C1080.52,1462.44,1037.83,1520.44,1001.66,1557.83z M672.68,1011.71v-11.96h97.16v11.96H672.68z
		 M769.84,1026.66v11.96h-28.4v258.59h-12.71v-270.55H769.84z M713.79,1026.66v270.55h-12.71v-258.59h-28.4v-11.96H713.79z
		 M830.38,1138.76h-0.37l-27.28-139.01h13.45l13.83,90.81h0.37l13.83-90.81h13.45L830.38,1138.76z M871.48,999.75h13.08
		l-34.75,159.19v138.26h-12.71v-139.38L871.48,999.75z M822.53,1157.82v139.38h-12.71v-138.26l-34.38-159.19h13.08L822.53,1157.82z
		 M1019.84,1219.48h-0.37l-45.59-207.77h-14.95v285.5h-12.71V999.75h36.62l24.29,119.95h0.37V999.75h12.33V1219.48z
		 M1034.78,1285.25v-285.5h12.71v297.45h-36.62l-24.29-122.57h-0.37v122.57h-12.33v-219.35h0.37l45.59,207.4H1034.78z
		 M1127.46,1297.21l-3.36-52.32h-21.67l-3.36,52.32h-12.71l5.23-65.02h42.6l5.98,65.02H1127.46z M1092.71,1217.24l20.18-193.94h0.37
		l19.81,193.94H1092.71z M1155.11,1297.21l-31.39-285.5h-20.93l-31.39,285.5h-12.71l32.88-297.45h43.35l32.88,297.45H1155.11z
		 M1194.72,1297.21h-12.71V999.75h12.71V1297.21z M614.29,966.62c-6.61-41.47-12.1-85.93-10.77-124.71
		c1.71-48.96,8.29-123.68,14.1-189.58c4.25-48.24,8.27-93.83,9.55-120.38c1.12-23.21,8.77-55.8,17.73-87.08
		c8.01,40.19,22.61,78.21,22.88,78.89c7.68,19.8,16.15,43.95,24.33,67.33c8.21,23.45,15.95,45.62,22.21,61.23
		c8.93,22.28,24.92,44.63,44.16,54.85c3.14,9.59,6.6,17.46,10.07,20.48c5.41,4.73,12.29,9.57,22.33,9.57
		c6.8,0,14.23-2.22,22.72-6.77c18.87-10.1,19.82-27.47,12.93-50.3c0.2-0.33,0.44-0.62,0.66-0.95c3.37,3.87,7.1,7.17,11.66,9.13
		c8.84,3.8,16.83,6.53,24.35,8.56c0.86,3.17,1.74,6.27,2.59,8.82c5.3,15.88,19.95,25.36,39.19,25.36c8.09,0,16.54-1.67,24.46-4.84
		c20.89-8.34,26.28-35.85,24.26-54.3c5.72,0.31,11.3,0.37,16.12,0.37c21.22,0,32.62-22.74,36.33-41.04
		c13.15-11.02,24.08-25.75,30.9-43.29c7.57-19.47,8.29-35.65,8.98-51.29c0.83-18.61,1.6-36.18,12.96-61.19
		c4.36-9.61,8.69-18.34,12.91-26.75c2.59,15,7.24,29.65,15.16,43.11c36.05,61.28,35.34,64.55,30.59,85.72
		c-0.92,4.09-1.94,8.75-2.93,14.36c-1.17,6.66-3.92,16.1-7.11,27.07c-8.78,30.18-20.79,71.53-19.73,116.64
		c0.13,5.06,4.29,8.91,9.39,8.95c2.26-0.05,4.22-1.01,5.78-2.38c1.94-1.72,3.25-4.18,3.17-6.99c-1.01-42.28,10.56-82.06,19-111.1
		c3.34-11.46,6.22-21.36,7.55-28.99c0.94-5.3,1.91-9.68,2.79-13.53c6.14-27.54,4.58-35.67-32.69-99.02
		c-10.87-18.48-14.85-39.94-14.93-61.54c-0.02-1.43,0.05-2.84,0.07-4.27c0.04-1.85,0.02-3.69,0.11-5.54
		c0.17-3.21,0.44-6.38,0.75-9.57c0.42-4.53,0.97-8.98,1.65-13.42c1.91-12.23,4.57-24.04,7.63-34.84c0.81-2.82,1.61-5.48,2.46-8.16
		c0.2-0.66,0.39-1.3,0.59-1.93c1.03-3.23,2.04-6.31,3.06-9.28c0.31-0.88,0.61-1.76,0.92-2.6c0.64,1.61,1.36,3.26,2.09,4.93
		c0.95,2.13,1.91,4.25,2.95,6.42c4.64,9.46,10.21,19.03,15.37,27.65c0.92,1.54,1.87,3.12,2.73,4.58c3.85,6.4,7.15,11.88,9.06,15.71
		c2.75,5.48,7.46,10.71,13.18,15.13c4.18,3.23,8.88,5.98,13.75,8.1c6.44,2.81,13.11,4.51,19.25,4.51c2.82,0,5.48-0.37,7.9-1.05
		c3.78-1.08,6.53-3.5,8.8-6.42c1.94-2.49,3.58-5.28,4.68-8.47c0.53-1.52,0.88-3.14,1.25-4.73c6.31,5.37,12.49,10.8,18.48,16.28
		c3.28,2.99,6.47,6.03,9.57,9.1c26.86,26.28,47.86,55.91,50.9,100.12c1.98,28.75,7.1,70.1,12.01,110.08
		c1.83,14.85,3.67,29.76,5.35,44.14c0.42,3.72,0.88,7.46,1.28,11.09c0.4,3.52,0.77,6.88,1.14,10.29
		c2.68,24.35,4.55,45.46,4.55,58.57c0,19.36-8.71,40.76-21.03,63.41c-5.68,10.4-12.07,21.07-18.81,31.96
		c-2.66,4.33-5.37,8.66-8.1,13.04c-6.78,10.8-13.57,21.78-20.1,32.82l-0.33-0.39c-0.59,1.23-0.99,2.33-1.58,3.58
		c-12.14,25.18-23.42,46.54-33.94,64.75H614.29z M1222,1297.21h-12.71V999.75H1222V1297.21z M1325.89,1253.86
		c4.11,1.87,9.72,4.11,17.19,4.11c14.95,0,23.17-10.09,23.17-27.65c0-43.35-40.36-100.9-40.36-159.19
		c0-39.61,15.32-73.62,55.31-73.62c10.46,0,16.44,1.87,23.92,4.48v12.33c-5.61-2.24-13.83-4.48-23.92-4.48
		c-33.26,0-42.6,31.02-42.6,60.91c0,57.55,40.36,112.48,40.36,161.06c0,22.42-12.33,38.49-32.88,38.49
		c-8.59,0-17.19-1.87-20.18-3.74V1253.86z M1314.67,1297.21h-69.13V999.75h12.71v285.5h56.43V1297.21z M1314.67,1269.93h-41.85
		V999.75h12.71v258.22h29.15V1269.93z M1351.3,1299.45c-9.34,0-19.81-1.87-25.41-4.48v-12.71c5.61,2.24,16.07,4.86,25.04,4.86
		c21.3,0,42.6-14.95,42.23-55.68c-0.37-56.43-40.73-110.98-40.73-160.68c0-28.03,9.72-46.34,31.02-46.34
		c5.98,0,16.44,1.87,21.67,4.11v12.33c-5.23-2.99-15.69-4.11-19.81-4.11c-14.2,0-20.18,10.84-20.18,33.63
		c0,14.57,4.86,34.38,14.57,59.42c19.81,50.45,26.16,76.23,26.16,103.14C1405.85,1283.01,1375.21,1299.45,1351.3,1299.45z"/>
</g>
</svg>
