<?xml version="1.0" encoding="utf-8"?>
<!-- Generator: Adobe Illustrator 26.5.0, SVG Export Plug-In . SVG Version: 6.00 Build 0)  -->
<svg version="1.1" id="Layer_1" xmlns="http://www.w3.org/2000/svg" xmlns:xlink="http://www.w3.org/1999/xlink" x="0px" y="0px"
	 viewBox="0 0 1805 1805" style="enable-background:new 0 0 1805 1805;" xml:space="preserve">
<style type="text/css">
	.st0{fill:#EFA0B8;}
	.st1{fill:#EF9EB6;}
</style>
<g>
	<path class="st0" d="M1315.85,1150.63c-40.93,0-80.95-11.44-115.74-32.98c-2.65-1.62-5.62-2.46-8.73-2.46
		c-1.36,0-2.78,0.19-4.14,0.52c-96.02,23.79-194.62,35.56-293.54,34.98c-115.54,1.29-230.57-15.13-341.12-48.69
		c-4.53-1.42-9.5-0.84-13.58,1.68c-58.19,34.59-128.54,42.29-192.75,21.01c-64.27-21.34-116.12-69.44-142.12-131.9
		c-25.99-62.52-23.6-133.19,6.6-193.78c30.19-60.58,85.22-105.07,150.72-121.94c6.34-1.62,11.19-6.79,12.28-13.25
		c12.03-70.8,51.6-133.97,109.98-175.73c58.38-41.77,130.93-58.84,201.85-47.39C756.5,452.14,820,491.13,862.29,549.19
		c4.53,6.14,12.67,8.47,19.72,5.5c67.57-28.19,143.67-27.93,211.11,0.58s120.52,83.02,147.35,151.1c3.1,7.76,11.51,12.03,19.59,9.96
		c61.42-16.1,126.79-4.98,179.43,30.52c52.63,35.5,87.42,91.94,95.5,154.92s-11.31,126.34-53.28,174
		C1439.81,1123.42,1379.35,1150.7,1315.85,1150.63L1315.85,1150.63z"/>
	<path class="st0" d="M1552.1,679.14c-24.63,20.37-52.11,37.05-81.53,49.66c-44.29-34.33-98.73-52.95-154.73-52.95
		c-16.88,0-33.62,1.75-50.11,5.17c-22.24-49.85-57.42-92.78-101.97-124.34c-44.48-31.55-96.66-50.5-151.1-54.89
		c-19.4-78.04-10.22-160.48,25.93-232.24c36.14-71.83,96.86-128.34,171.08-159.25c-51.08,80.82-65.5,179.43-39.76,271.42
		c25.73,92.01,89.29,168.82,174.82,211.37c85.54,42.54,185.12,46.81,274.02,11.83C1600.4,632.85,1577.97,657.87,1552.1,679.14
		L1552.1,679.14z"/>
	<path class="st1" d="M226.58,1581.85c-1.82-2.65-2.72-5.93-2.72-9.84l0.84-70.36c0.84-34.06,1.26-60.44,1.26-79.15
		c0-65.05-3.63-114.89-10.89-149.51c4.19-6.42,9.49-9.63,15.91-9.63c10.33,0,19.75,2.3,28.27,6.91
		c8.51,4.61,15.56,10.82,21.15,18.64c10.89,16.2,16.33,34.34,16.33,54.44c0,20.94-4.47,39.65-13.4,56.12
		c-8.94,16.48-21.92,29.31-38.95,38.53l0.84,42.3l0.84,22.2c0.27,4.75,0.42,11.59,0.42,20.52c0.84,18.71,1.26,33.92,1.26,45.65
		c0,5.31-1.12,9.49-3.35,12.56c-2.24,3.07-5.73,4.61-10.47,4.61C230.83,1585.82,228.39,1584.5,226.58,1581.85z M267.62,1385.43
		c5.16-11.31,7.75-24.08,7.75-38.32v-0.42c0-6.42-0.7-14.51-2.09-24.29c-0.84-3.35-2.38-6.7-4.61-10.05
		c-2.24-3.35-3.49-5.3-3.77-5.86c-1.96-2.79-7.12-7.12-15.5-12.98l-10.89-7.96c0,14.24,0.84,36.3,2.51,66.17l2.51,66.17
		C254.43,1407.56,262.45,1396.74,267.62,1385.43z M396.81,1584.57c-3.08-1.95-4.61-5.58-4.61-10.89c0-8.38-1.4-22.62-4.19-42.72
		l-1.67-8.79l-41.46-6.28c-1.68,6.43-4.05,19.41-7.12,38.95c-1.68,13.68-4.33,22.76-7.96,27.22c-1.96,2.51-4.75,3.77-8.38,3.77
		c-3.35,0-6.43-1.05-9.21-3.14c-2.79-2.09-4.19-4.67-4.19-7.75l0.84-2.09l0.42-1.68c18.43-71.75,32.38-142.53,41.88-212.33
		c0-1.11,0.14-3,0.42-5.65c0.27-2.65,0.56-6.49,0.84-11.52c0.84-10.33,1.74-18.56,2.72-24.71c0.98-6.14,2.58-10.74,4.82-13.82h14.24
		c3.91,0,7.26,0.91,10.05,2.72c2.79,1.82,4.19,4.4,4.19,7.75c0,21.22,2.93,52.77,8.79,94.65c5.58,43,8.38,73.15,8.38,90.46
		c0,1.68,0.69,6.01,2.09,12.98c1.39,6.43,2.09,10.62,2.09,12.56c0,1.96,1.39,10.33,4.19,25.13c2.51,13.4,3.77,22.06,3.77,25.96v0.42
		c0,6.14-2.24,10.05-6.7,11.73C404.62,1587.5,399.88,1586.52,396.81,1584.57z M382.15,1491.6c0-25.13-2.24-57.23-6.7-96.32
		l-4.19-43.55c-12.01,65.61-20.25,115.17-24.71,148.67c4.19,2.79,16.47,5.03,36.85,6.7C382.57,1502.9,382.15,1497.74,382.15,1491.6z
		 M448.53,1584.15c-3.49-2.79-5.52-6.42-6.07-10.89l4.61-7.12c1.67,0,4.33,0.56,7.96,1.68c4.19,0.84,7.39,1.26,9.63,1.26
		c5.03,0,9.56-2.23,13.61-6.7c4.04-4.46,7.05-10.32,9-17.59c3.62-13.4,5.44-25.4,5.44-36.02c0-18.43-5.86-37.83-17.59-58.21
		l-4.61-7.96c-5.31-9.21-9.78-17.45-13.4-24.71c-3.63-7.26-6.7-15.08-9.21-23.45c-3.35-10.89-5.03-21.78-5.03-32.67
		c0-12.28,2.79-25.13,8.38-38.53c2.79-6.42,6.77-11.65,11.94-15.7c5.16-4.04,10.95-6.07,17.38-6.07c5.03,0,9.7,1.61,14.03,4.82
		c4.33,3.21,6.49,7.05,6.49,11.52c0,2.51-0.98,4.47-2.93,5.86c-1.96,1.4-4.33,2.09-7.12,2.09c-3.08,0-6.01-0.84-8.79-2.51
		c-6.14,0.28-11.03,5.73-14.66,16.33c-3.08,9.78-4.61,17.87-4.61,24.29c0,8.1,1.26,16.27,3.77,24.5c2.51,8.24,5.72,15.7,9.63,22.4
		l9.21,16.75l14.66,27.64c3.91,7.82,7.05,16.89,9.42,27.22c2.37,10.33,3.56,20.8,3.56,31.41c0,17.03-3.91,33.23-11.73,48.58
		c-3.91,7.82-9.42,14.1-16.54,18.85c-7.12,4.74-15.01,7.12-23.66,7.12v1.26C456.28,1588.76,452.02,1586.94,448.53,1584.15z
		 M580.66,1577.03l-0.42-16.33c-0.28-4.74-0.42-10.05-0.42-15.91l0.42-14.24c-0.84-3.07-2.93-33.64-6.28-91.71
		c-3.35-58.07-5.31-95.34-5.86-111.82c-16.2-0.56-26.53-2.23-30.99-5.03c-3.08-2.23-4.61-4.74-4.61-7.54c0-2.23,1.47-4.25,4.4-6.07
		c2.93-1.81,5.93-2.72,9-2.72c7.81,0,17.31,0.56,28.48,1.67c10.61,1.4,20.1,2.09,28.48,2.09h3.35h3.35
		c8.65,0,12.98,3.35,12.98,10.05c0,3.35-1.4,6.07-4.19,8.17c-2.79,2.09-6.01,3.14-9.63,3.14c-2.51,0-6.14-0.42-10.89-1.26
		l-8.38-1.68l-0.42,2.09l-0.42,2.09c0,24.85,2.37,64.49,7.12,118.94c4.46,51.09,6.7,90.74,6.7,118.94c0,3.35-1.47,6.28-4.4,8.79
		c-2.93,2.51-6.22,3.77-9.84,3.77L580.66,1577.03z M673.83,1585.4c-2.93-2.51-4.54-5.58-4.82-9.21v-10.89v-8.38
		c-0.28-2.51-0.42-5.45-0.42-8.79c0-5.86-0.42-14.79-1.26-26.8l-0.84-26.8c0-13.68,0.42-34.06,1.26-61.14
		c1.11-24.29,1.68-44.67,1.68-61.14c0-3.91-0.42-9.77-1.26-17.59c-0.84-8.1-1.26-13.96-1.26-17.59c0-19.82,5.86-29.73,17.59-29.73
		c9.21,0,19.89,1.82,32.04,5.45c12.15,3.63,18.22,7.96,18.22,12.98c0,2.79-1.19,5.38-3.56,7.75c-2.38,2.38-5.23,4.26-8.59,5.65
		c-11.73-4.19-22.34-6.97-31.83-8.38c0.27,4.19,0.42,10.2,0.42,18.01c0,11.17-0.14,21.22-0.42,30.15
		c-0.84,13.4-1.26,23.45-1.26,30.15l1.26,6.7l6.7-0.42c2.23-0.28,5.03-0.42,8.38-0.42c13.4,0,20.1,3.91,20.1,11.73
		c0,3.08-1.26,5.65-3.77,7.75c-2.51,2.09-5.73,3.14-9.63,3.14c-5.03,0-8.94-0.28-11.73-0.84h-10.47c0.56,7.26,0.84,17.87,0.84,31.83
		c0,13.96-0.14,26.53-0.42,37.69c-0.84,17.03-1.26,29.73-1.26,38.11c0,15.64,0.27,23.45,0.84,23.45l13.82-0.42
		c4.74-0.27,10.47-0.42,17.17-0.42c10.61,0,15.91,3.35,15.91,10.05c0,3.91-1.75,6.91-5.23,9c-3.49,2.09-7.75,3.14-12.77,3.14h-35.6
		C680.04,1589.17,676.77,1587.92,673.83,1585.4z M810.57,1585.4c-4.47,2.79-9.21,4.19-14.24,4.19c-3.35,0-6.22-1.47-8.59-4.4
		c-2.38-2.93-3.56-6.07-3.56-9.42c0-23.45,0.98-54.72,2.93-93.81c1.67-41.6,2.51-72.73,2.51-93.39v-2.93
		c-1.68-17.59-2.51-30.71-2.51-39.37c0-26.52,4.88-39.79,14.66-39.79c2.79,0,5.23,1.05,7.33,3.14s3.14,4.54,3.14,7.33
		c0,3.35-0.42,8.66-1.26,15.91c-0.84,6.98-1.26,12.29-1.26,15.91c0,18.71,0.14,35.6,0.42,50.67c0.27,14.8,0.42,31.55,0.42,50.25
		c-1.4,4.19-2.09,10.05-2.09,17.59v5.03l-0.84,33.08c-0.56,9.78-0.84,20.94-0.84,33.5c0,19.26,4.61,28.9,13.82,28.9
		c0.56,0,1.47-0.07,2.72-0.21c1.26-0.14,3-0.21,5.23-0.21c2.51-0.27,5.72-0.42,9.63-0.42c15.08,0,22.61,4.19,22.61,12.56
		c0,2.79-1.26,5.16-3.77,7.12c-2.51,1.95-5.59,3.21-9.21,3.77C837.79,1587.08,825.36,1585.4,810.57,1585.4z M978.31,1580.8
		c-4.05-2.51-6.07-6-6.07-10.47c6.14-6.14,9.21-22.47,9.21-49c0-15.91-1.26-39.08-3.77-69.52c-2.79-29.03-4.19-51.93-4.19-68.68
		l0.84-23.03c0.28-6.7,0.42-14.38,0.42-23.03c0-7.81-1.4-17.73-4.19-29.73c-3.35-12.56-5.03-21.36-5.03-26.38
		c0-9.77,10.75-14.66,32.25-14.66h6.28c15.08,0,28.2,4.61,39.37,13.82c8.93,7.82,16.47,19.13,22.61,33.92
		c4.19,10.05,7.81,24.02,10.89,41.88c1.67,15.64,2.51,27.92,2.51,36.85v13.4v19.68c-0.56,1.12-0.84,2.24-0.84,3.35
		c0,2.24,0.14,3.91,0.42,5.03c0.28,1.12,0.42,2.51,0.42,4.19c0,8.94-1.33,19.62-3.98,32.04c-2.66,12.43-6.49,25.06-11.52,37.9
		c-12.56,30.71-26.67,52.49-42.3,65.33c-9.21,7.26-18.85,10.89-28.9,10.89C987.17,1584.57,982.35,1583.31,978.31,1580.8z
		 M1028.77,1532.43c7.81-12.14,13.82-25.61,18.01-40.41c7.54-27.36,11.31-55,11.31-82.92c0-15.08-1.4-31.54-4.19-49.42
		c-3.08-17.31-9.63-32.94-19.68-46.9c-4.75-6.7-10.75-11.94-18.01-15.71c-7.26-3.77-15.5-5.65-24.71-5.65v0.42
		c0,25.13,1.67,63.1,5.03,113.91c3.35,50.54,5.03,88.78,5.03,114.75v39.79C1011.87,1553.86,1020.95,1544.57,1028.77,1532.43z
		 M1198.8,1584.57c-3.08-1.95-4.61-5.58-4.61-10.89c0-8.38-1.4-22.62-4.19-42.72l-1.67-8.79l-41.46-6.28
		c-1.67,6.43-4.05,19.41-7.12,38.95c-1.67,13.68-4.33,22.76-7.96,27.22c-1.96,2.51-4.75,3.77-8.38,3.77c-3.35,0-6.43-1.05-9.21-3.14
		c-2.79-2.09-4.19-4.67-4.19-7.75l0.84-2.09l0.42-1.68c18.43-71.75,32.38-142.53,41.88-212.33c0-1.11,0.14-3,0.42-5.65
		c0.27-2.65,0.56-6.49,0.84-11.52c0.84-10.33,1.74-18.56,2.72-24.71c0.97-6.14,2.58-10.74,4.82-13.82h14.24
		c3.91,0,7.26,0.91,10.05,2.72c2.79,1.82,4.19,4.4,4.19,7.75c0,21.22,2.93,52.77,8.79,94.65c5.58,43,8.38,73.15,8.38,90.46
		c0,1.68,0.69,6.01,2.09,12.98c1.39,6.43,2.09,10.62,2.09,12.56c0,1.96,1.39,10.33,4.19,25.13c2.51,13.4,3.77,22.06,3.77,25.96v0.42
		c0,6.14-2.24,10.05-6.7,11.73C1206.61,1587.5,1201.87,1586.52,1198.8,1584.57z M1184.14,1491.6c0-25.13-2.24-57.23-6.7-96.32
		l-4.19-43.55c-12.01,65.61-20.25,115.17-24.71,148.67c4.19,2.79,16.47,5.03,36.85,6.7
		C1184.56,1502.9,1184.14,1497.74,1184.14,1491.6z M1271.67,1567.4c-3.63-14.79-6.63-33.15-9-55.07
		c-2.38-21.91-4.82-49.63-7.33-83.13c-1.4-21.78-3.35-45.09-5.86-69.94c-1.96-20.66-4.33-33.92-7.12-39.78
		c2.51-5.03,6.56-7.54,12.14-7.54c8.93,0,13.4,9.21,13.4,27.64c0,21.78,2.93,53.61,8.79,95.48c5.86,41.6,9.21,71.89,10.05,90.88
		l2.09-14.24c2.79-18.7,5.23-36.36,7.33-52.98c2.09-16.61,3.83-34.55,5.23-53.81c1.95-21.5,2.93-42.72,2.93-63.66l11.31-5.03
		c3.62,0,6.63,0.91,9,2.72c2.37,1.82,3.56,4.4,3.56,7.75v3.35c4.46,15.64,8.17,32.74,11.1,51.3c2.93,18.57,5.51,40.41,7.75,65.54
		c1.67,19.27,3.62,37.27,5.86,54.03c5.3-37.41,7.96-83.48,7.96-138.2c0-8.65,1.11-19.26,3.35-31.83
		c1.95-12.84,2.93-23.31,2.93-31.41c-0.84-2.51-1.26-4.88-1.26-7.12c0-6.7,4.19-10.05,12.56-10.05c3.35,0,6,0.84,7.96,2.51
		c1.95,1.67,2.93,4.05,2.93,7.12v6.28c0,4.19-0.42,7.82-1.26,10.89v2.09c-3.63,11.17-5.44,24.02-5.44,38.53v30.57
		c0,17.59-2.09,43.83-6.28,78.73c-4.47,34.06-6.7,59.47-6.7,76.22v7.54c0,6.43-0.7,11.87-2.09,16.33
		c-1.67,5.58-5.73,8.38-12.14,8.38c-4.47,0-7.89-1.47-10.26-4.4c-2.38-2.93-3.56-6.63-3.56-11.1c0-22.62-2.38-51.93-7.12-87.95
		c-2.51-16.19-5.17-32.52-7.96-49l-6.7-43.97c-1.12,8.1-1.67,16.06-1.67,23.87c0,15.64-1.12,36.3-3.35,61.98
		c-2.24,25.69-5.73,50.67-10.47,74.96c-5.31,27.08-11.31,40.62-18.01,40.62C1280.74,1592.53,1275.85,1584.15,1271.67,1567.4z
		 M1542.2,1582.26c-1.68-1.81-2.93-4.95-3.77-9.42l-2.51-7.96v-0.84v-1.26c0-9.21-9.57-40.62-28.69-94.23
		c-19.13-53.61-34.13-93.25-45.02-118.94v210.65l1.67,2.93c0.28,0.56,0.84,1.54,1.68,2.93c0.84,1.4,1.26,2.79,1.26,4.19
		c0,3.63-1.26,6.7-3.77,9.21c-2.51,2.51-5.59,3.77-9.21,3.77c-8.94,0-13.4-8.51-13.4-25.54l-0.42-71.61
		c-0.28-21.5-0.42-45.5-0.42-72.03c0-8.93,0.42-21.92,1.26-38.95c0.84-17.59,1.26-30.57,1.26-38.95c0-13.12,5.03-23.45,15.08-30.99
		v2.51c1.67-0.56,2.79-0.84,3.35-0.84c6.42,0,14.51,11.17,24.29,33.5c7.81,17.87,14.87,36.71,21.15,56.54
		c6.28,19.83,14.59,48.02,24.92,84.6l4.19,15.08c6.42,22.62,11.31,38.81,14.66,48.58c5.58-60.02,8.38-130.94,8.38-212.74v-5.45
		c-0.28-1.68-0.42-3.49-0.42-5.44c0-8.38,3.35-12.56,10.05-12.56c3.91,0,6.91,1.54,9,4.61c2.09,3.07,3.14,6.98,3.14,11.72v31.41
		c-0.56,43-2.24,89.62-5.03,139.88c-2.79,50.26-6.14,78.6-10.05,85.02c-8.1,2.23-13.13,3.35-15.08,3.35
		C1546.39,1584.99,1543.87,1584.08,1542.2,1582.26z"/>
</g>
</svg>
