<?xml version="1.0" encoding="utf-8"?>
<!-- Generator: Adobe Illustrator 26.5.0, SVG Export Plug-In . SVG Version: 6.00 Build 0)  -->
<svg version="1.1" id="Layer_1" xmlns="http://www.w3.org/2000/svg" xmlns:xlink="http://www.w3.org/1999/xlink" x="0px" y="0px"
	 viewBox="0 0 1805 1805" style="enable-background:new 0 0 1805 1805;" xml:space="preserve">
<style type="text/css">
	.st0{fill:#414747;}
	.st1{fill:#94D357;}
	.st2{enable-background:new    ;}
	.st3{fill:#91D057;}
</style>
<g>
	<path class="st0" d="M551.25,485.01c-1.36-0.34-2.99-0.52-4.89-0.52H512.9H139.42h-33.45c-1.9,0-3.53,0.17-4.89,0.52
		c-3.66,0.92-5.44,5.11-3.84,8.53l58.16,112.98c2.52,4.42,3.34,6.31,10.01,6.31h76.11h17.88v424.87c0,5.6,3.32,8.41,10.01,8.41
		h117.35c7.28,0,10.92-2.81,10.92-8.41V612.83h20.83h69.77c6.67,0,7.48-1.89,10.01-6.31l56.8-112.98
		C556.69,490.12,554.91,485.94,551.25,485.01z"/>
	<path class="st1" d="M921.76,1037.68c1.21,1.88,0.91,3.75-0.91,5.62c-1.82,1.88-4.25,2.81-7.28,2.81H788.04
		c-4.25,0-6.98-1.4-8.19-4.21L636.13,728.8l-141.91,313.1c-1.22,2.81-4.25,4.21-9.1,4.21H360.51c-4.25,0-7.77-0.58-9.27-2.23
		c-1.5-1.64-1.66-3.62-0.45-5.97l276.26-549.2c1.2-2.81,4.23-4.21,9.1-4.21c4.84,0,7.87,1.4,9.1,4.21L921.76,1037.68z"/>
	<path class="st0" d="M1015.11,1046.11H875.93V494.65c0-6.76,3.32-10.15,10.01-10.15h120.08c6.05,0,9.1,3.39,9.1,10.15v551.46
		H1015.11z M1268.9,941.51c6.67,0,10.01,2.35,10.01,7.03v91.26c0,4.21-3.34,6.32-10.01,6.32H885.94c-6.68,0-10.01-2.11-10.01-6.32
		v-98.28h139.18h253.79V941.51z"/>
	<path class="st1" d="M1707.63,1037.68c1.21,1.88,0.91,3.75-0.91,5.62c-1.82,1.88-4.25,2.81-7.28,2.81H1573.9
		c-4.25,0-6.98-1.4-8.19-4.21L1422,728.8l-141.91,313.1c-1.22,2.81-4.25,4.21-9.1,4.21h-124.62c-4.25,0-7.14-0.81-8.64-2.46
		c-1.5-1.64-1.66-3.62-0.45-5.97l275.63-548.97c1.2-2.81,4.23-4.21,9.1-4.21c4.84,0,7.87,1.4,9.1,4.21L1707.63,1037.68z"/>
	<path class="st0" d="M720.5,1045.26c-0.5,0.55-1.21,0.83-2.15,0.83H555.94c-1.21,0-2.09-0.22-2.53-0.72
		c-0.44-0.44-0.5-1.05-0.11-1.76l80.94-161.21c0.39-0.83,1.27-1.21,2.7-1.21c1.38,0,2.31,0.38,2.64,1.21l81.21,161.21
		C721.16,1044.16,721.05,1044.71,720.5,1045.26z"/>
	<g class="st2">
		<path class="st0" d="M416.21,1243.1l-0.42-76.63l-37.33,62.38h-18.25l-37.12-60.31v74.57h-37.95v-144.59h33.8l51.02,83.45
			l49.77-83.45h33.8l0.41,144.59L416.21,1243.1L416.21,1243.1z"/>
		<path class="st0" d="M481.74,1178.66v-80.14h41.06v78.91c0,24.79,10.37,34.7,27.58,34.7c17,0,27.37-9.91,27.37-34.7v-78.91h40.44
			v80.14c0,43.17-25.3,67.34-68.23,67.34C507.04,1246,481.74,1221.83,481.74,1178.66z"/>
		<path class="st0" d="M645.98,1098.51h41.06v112.16h69.27v32.43H645.98V1098.51z"/>
		<path class="st0" d="M789.9,1130.94h-44.59v-32.43h130.03v32.43h-44.38v112.16H789.9V1130.94z"/>
		<path class="st0" d="M890.68,1098.51h41.06v144.59h-41.06V1098.51z"/>
		<path class="st0" d="M1092.04,1243.1l-0.41-76.63l-37.33,62.38h-18.25l-37.12-60.31v74.57h-37.95v-144.59h33.8l51.02,83.45
			l49.77-83.45h33.8l0.42,144.59L1092.04,1243.1L1092.04,1243.1z"/>
		<path class="st0" d="M1275.37,1211.5v31.6h-116.55v-144.59h113.85v31.6h-73.21v24.37h64.5v30.57h-64.5v26.44h75.91V1211.5z"/>
		<path class="st0" d="M1298.17,1098.51h68.64c48.11,0,81.09,27.89,81.09,72.3s-32.97,72.29-81.09,72.29h-68.64V1098.51z
			 M1365.16,1210.47c24.68,0,41.27-14.67,41.27-39.66s-16.59-39.66-41.27-39.66h-25.92v79.32L1365.16,1210.47L1365.16,1210.47z"/>
		<path class="st0" d="M1469.46,1098.51h41.06v144.59h-41.06V1098.51z"/>
		<path class="st0" d="M1637.03,1215.01h-61.39l-11.41,28.09h-41.89l64.08-144.59h40.44l64.29,144.59h-42.72L1637.03,1215.01z
			 M1625,1184.85l-18.66-46.27l-18.67,46.27H1625z"/>
	</g>
	<path class="st0" d="M1505.89,1045.26c-0.5,0.55-1.21,0.83-2.15,0.83h-162.42c-1.21,0-2.09-0.22-2.53-0.72
		c-0.44-0.44-0.5-1.05-0.11-1.76l80.94-161.21c0.39-0.83,1.27-1.21,2.7-1.21c1.38,0,2.31,0.38,2.64,1.21l81.21,161.21
		C1506.55,1044.16,1506.44,1044.71,1505.89,1045.26z"/>
	<path class="st0" d="M1707.33,1320.5H260.88c-0.56,0-1.02-0.46-1.02-1.02v-26.67c0-0.56,0.46-1.02,1.02-1.02h1446.45
		c0.56,0,1.02,0.46,1.02,1.02v26.67C1708.35,1320.05,1707.89,1320.5,1707.33,1320.5z"/>
	<path class="st3" d="M1707.33,1320.42H961.59v-28.7h745.75c0.56,0,1.02,0.46,1.02,1.02v26.66
		C1708.35,1319.97,1707.89,1320.42,1707.33,1320.42z"/>
</g>
</svg>
