<svg width="180" height="132" viewBox="0 0 180 132" fill="none" xmlns="http://www.w3.org/2000/svg">
<path d="M180 63.0484V68.9517C179.947 69.2708 179.866 69.5898 179.84 69.9089C179.545 72.4617 179.331 75.0411 178.904 77.5939C177.513 85.8638 174.518 93.5488 170.079 100.649C163.34 111.445 154.194 119.662 142.748 125.272C136.143 128.543 129.003 130.617 121.649 131.468C120.018 131.654 118.387 131.814 116.755 132H53.5374C53.2165 131.947 52.8956 131.84 52.5747 131.84C46.2101 131.442 40.0594 130.006 34.2297 127.453C21.5005 121.922 12.0071 112.934 5.803 100.569C3.04858 95.1177 1.25687 89.2409 0.534839 83.1781C0.347645 81.7155 0.187194 80.2264 0 78.7639V73.0467C0.0534839 72.7276 0.160452 72.4085 0.160452 72.0894C0.481355 66.585 1.63126 61.2667 3.61016 56.1346C8.98529 42.3336 18.345 32.1225 31.6357 25.5012C38.5351 22.0709 45.8892 20.2627 53.5909 19.8638C57.3615 19.6777 61.1321 19.8904 64.876 20.3691C65.2236 20.4222 65.705 20.2627 65.9456 20.0234C71.3208 14.5455 77.4714 10.1048 84.3708 6.75423C91.0831 3.48348 98.1429 1.38276 105.577 0.531829C107.315 0.345689 109.08 0.159549 110.819 0H116.22C116.568 0.0531829 116.916 0.106366 117.29 0.159549C119.964 0.478646 122.639 0.664786 125.286 1.11684C133.549 2.4996 141.224 5.45125 148.338 9.81225C159.248 16.5133 167.538 25.6076 173.234 37.0419C176.524 43.6366 178.636 50.7365 179.465 58.0226C179.652 59.6978 179.813 61.3731 180 63.0484ZM79.3433 24.9428C79.4503 25.0757 79.4771 25.1555 79.5305 25.1821C83.2209 26.9903 86.7776 29.1176 90.0936 31.5375C90.3075 31.697 90.8156 31.6172 91.0831 31.4577C100.256 25.6874 110.177 23.693 120.874 25.581C131.33 27.4158 139.834 32.6277 146.359 40.9243C153.713 50.311 156.521 60.9476 154.488 72.7542C153.124 80.6785 149.942 87.7784 144.513 93.7349C134.619 104.584 122.237 109.078 107.636 107.164C98.651 105.994 90.8959 102.138 84.4778 95.7027C76.2413 87.4327 67.9513 79.216 59.688 70.9726C58.5916 69.8824 57.3615 68.9782 55.7837 68.7921C53.0025 68.4464 50.5155 69.8292 49.3121 72.3022C48.2425 74.5093 48.3762 77.0089 50.7027 79.2691C59.902 88.2571 69.0477 97.3247 78.2202 106.313C79.798 107.855 81.4827 109.291 83.2744 110.594C89.9866 115.434 97.5546 118.119 105.764 119.21C112.209 120.06 118.601 119.874 124.938 118.465C137.026 115.753 147.054 109.637 154.943 100.17C161.468 92.3521 165.399 83.3642 166.763 73.2595C167.565 67.5157 167.405 61.6656 166.281 55.9484C164.463 46.6148 160.478 38.2917 154.141 31.1918C142 17.6035 126.73 11.5407 108.572 12.8969C101.593 13.4021 94.9874 15.4496 88.7565 18.6938C85.4138 20.4222 82.2582 22.523 79.3433 24.9428ZM74.9042 119.475C74.6635 119.236 74.3961 119.023 74.1554 118.784C70.3848 115.247 66.6142 111.737 62.897 108.147C62.175 107.456 61.5065 107.11 60.4903 107.137C56.7197 107.217 52.9491 107.243 49.2319 106.419C30.78 102.271 20.0565 82.3006 26.8489 64.7502C32.224 50.8961 47.0658 42.4666 61.7204 45.0725C68.2989 46.2425 74.0484 49.0081 78.7818 53.8477C84.558 59.7776 90.4947 65.5214 96.3245 71.3715C97.6616 72.701 99.1859 73.3127 101.004 73.0467C103.384 72.701 105.283 71.5842 106.139 69.2708C106.968 66.9839 106.567 64.83 104.828 63.0749C98.7045 56.9057 92.7411 50.6035 86.3765 44.7002C74.0217 33.2393 59.4741 29.8356 43.3487 34.7019C21.6877 41.2434 9.01203 63.5004 13.9593 85.4384C18.4787 105.435 36.0481 119.475 56.6394 119.502C62.389 119.502 68.1385 119.502 73.888 119.502C74.1821 119.502 74.4763 119.502 74.9042 119.475Z" fill="#848EC6"/>
</svg>
