<svg width="164" height="164" viewBox="0 0 164 164" fill="none" xmlns="http://www.w3.org/2000/svg">
<path d="M82 0C36.695 0 0 36.695 0 82C0 127.305 36.695 164 82 164C127.305 164 164 127.305 164 82C164 36.695 127.305 0 82 0ZM36.285 127.715C23.985 115.415 17.5617 99.015 17.5617 83.23L81.385 146.507C64.985 145.823 48.585 140.015 36.285 127.715ZM96.0767 144.662L19.3383 67.9233C25.7617 39.2233 51.5233 17.5617 82 17.5617C103.662 17.5617 122.385 28.085 134.138 43.9383L125.323 51.5233C115.347 38.0617 99.5617 29.2467 82 29.2467C59.1767 29.2467 39.8383 43.87 32.185 64.37L99.5617 131.747C116.577 125.87 129.423 111.247 133.523 93.685H105.438V82H146.438C146.438 112.477 124.777 138.238 96.0767 144.662Z" fill="#848EC6"/>
</svg>
