<svg width="160" height="160" viewBox="0 0 160 160" fill="none" xmlns="http://www.w3.org/2000/svg">
<g clip-path="url(#clip0_1_59)">
<path d="M21 0C9.40202 0 0 9.40202 0 21V139C0 150.598 9.40202 160 21 160H139C150.598 160 160 150.598 160 139V21C160 9.40202 150.598 0 139 0H21ZM87.0937 124.812C87.0765 124.812 87.0625 124.827 87.0625 124.844C87.0501 140.385 77.9284 147.5 64.625 147.5C55.8141 147.5 49.6988 144.131 45.6605 139.371C43.2008 136.472 44.5336 132.25 47.7835 130.277V130.277C51.3575 128.107 55.5344 129.843 58.8436 132.398C60.1865 133.436 61.8237 134.062 64 134.062C68.9375 134.062 72.0625 132.125 72.0625 124.625V81.0312C72.0625 76.8719 75.4344 73.5 79.5937 73.5V73.5C83.7531 73.5 87.125 76.8719 87.125 81.0312V124.781C87.125 124.799 87.111 124.812 87.0937 124.812V124.812ZM122.625 147.437C111.986 147.437 104.187 143.541 99.1459 137.832C96.5527 134.895 97.9039 130.532 101.298 128.576V128.576C104.754 126.583 108.996 127.915 112.028 130.509C114.638 132.742 117.906 134.125 122.312 134.125C128.562 134.125 132.5 131 132.5 126.687C132.5 121.562 128.438 119.687 121.562 116.687L117.812 115.063C106.938 110.438 99.75 104.625 99.75 92.375C99.75 81.125 108.313 72.5 121.75 72.5C129.057 72.5 134.794 74.434 139.298 79.2223C141.807 81.891 140.71 86.0498 137.627 88.0283V88.0283C134.275 90.1791 130.074 88.5061 126.558 86.6355C125.165 85.8941 123.595 85.5625 121.75 85.5625C117.375 85.5625 114.563 88.375 114.563 92C114.563 96.5 117.375 98.3125 123.813 101.125L127.563 102.75C140.313 108.25 147.563 113.812 147.563 126.375C147.563 140.062 136.937 147.437 122.625 147.437Z" fill="#848EC6"/>
</g>
<defs>
<clipPath id="clip0_1_59">
<rect width="160" height="160" fill="white"/>
</clipPath>
</defs>
</svg>
