<svg width="215" height="128" viewBox="0 0 215 128" fill="none" xmlns="http://www.w3.org/2000/svg">
<path d="M50.7386 33.3803H91.2784V36.5634H54.4602V60.507H89.0909V63.6901H54.4602V89.9718H91.7045V93.1549H50.7386V33.3803ZM94.9148 33.3803H99.2329L118.324 59.662L137.841 33.3803L164.375 0L120.767 62.4225L143.239 93.1268H138.75L118.295 65.1831L97.7557 93.1268H93.3523L115.994 62.4225L94.9148 33.3803ZM144.83 36.5634V33.3803H191.051V36.5634H169.773V93.1549H166.051V36.5634H144.83Z" fill="#848EC6"/>
<path d="M0 33.3804H4.65909L68.7216 128L42.2443 93.1269L3.89205 37.8874L3.72159 93.1269H0V33.3804Z" fill="#848EC6"/>
<path d="M190.682 88.9858C191.449 88.9858 192.017 88.3943 192.017 87.6619C192.017 86.9013 191.449 86.3379 190.682 86.3379C189.915 86.3379 189.347 86.9295 189.347 87.6619C189.347 88.4224 189.915 88.9858 190.682 88.9858ZM194.318 85.4929C194.318 87.7182 195.937 89.1548 198.295 89.1548C200.795 89.1548 202.33 87.6619 202.33 85.0703V75.9436H200.312V85.0703C200.312 86.5069 199.574 87.2675 198.295 87.2675C197.131 87.2675 196.364 86.5633 196.335 85.4929H194.318ZM205 85.3802C205.142 87.69 207.102 89.1548 209.972 89.1548C213.068 89.1548 215 87.6055 215 85.1548C215 83.2112 213.892 82.1407 211.222 81.521L209.773 81.183C208.068 80.7886 207.386 80.2534 207.386 79.352C207.386 78.1971 208.466 77.4365 210.057 77.4365C211.562 77.4365 212.614 78.1689 212.812 79.352H214.773C214.659 77.183 212.727 75.6619 210.085 75.6619C207.244 75.6619 205.341 77.183 205.341 79.4929C205.341 81.3802 206.42 82.5069 208.778 83.0703L210.455 83.4647C212.187 83.859 212.955 84.4506 212.955 85.4365C212.955 86.5914 211.761 87.4083 210.142 87.4083C208.409 87.4083 207.187 86.6196 207.017 85.4083H205V85.3802Z" fill="#848EC6"/>
</svg>
