<svg width="184" height="163" viewBox="0 0 184 163" fill="none" xmlns="http://www.w3.org/2000/svg">
<path d="M151.271 52.8736C149.398 52.2249 147.363 51.5761 145.327 51.0085C145.653 49.6299 145.979 48.3324 146.223 46.9537C150.701 25.3015 147.77 7.78509 137.756 2.10847C128.149 -3.40596 112.435 2.35175 96.6407 16.0567C95.0938 17.3542 93.6283 18.8139 92.0814 20.2736C91.023 19.3005 90.046 18.3274 89.069 17.4353C72.3788 2.75723 55.7699 -3.48705 45.7558 2.35175C36.1487 7.86618 33.2991 24.2473 37.3699 44.7642C37.777 46.7105 38.1841 48.7378 38.754 50.8463C36.3929 51.495 34.1133 52.2249 31.915 52.9547C12.4566 59.7667 0 70.3901 0 81.3378C0 92.6911 13.3522 104.044 33.6248 111.018C35.2531 111.586 36.8814 112.073 38.5912 112.559C38.0212 114.749 37.5327 116.938 37.1257 119.128C33.2991 139.32 36.3115 155.377 45.8372 160.81C55.6885 166.487 72.2973 160.648 88.4177 146.619C89.7204 145.484 90.9416 144.348 92.2442 143.132C93.8726 144.754 95.5823 146.213 97.2106 147.673C112.842 161.054 128.312 166.487 137.837 160.973C147.688 155.296 150.945 138.104 146.711 117.101C146.386 115.479 146.06 113.857 145.572 112.235C146.712 111.91 147.851 111.505 148.991 111.181C170.078 104.206 183.837 92.9343 183.837 81.5C184 70.309 171.136 59.6856 151.271 52.8736ZM101.77 21.9766C115.366 10.2179 128.067 5.59554 133.848 8.83932C140.035 12.4075 142.396 26.6801 138.57 45.3319C138.326 46.5483 138.081 47.7647 137.756 48.9811C130.103 47.197 121.798 45.8995 113.168 45.0886C108.12 37.9522 102.91 31.3836 97.6177 25.7881C99.0018 24.4906 100.386 23.193 101.77 21.9766ZM58.4566 81.5811C60.8177 76.6343 63.423 71.6876 66.2726 66.8219C69.1221 61.8751 72.1345 57.1717 75.2283 52.7115C80.6832 52.306 86.3009 52.0627 92 52.0627C97.6991 52.0627 103.317 52.306 108.772 52.7115C111.784 57.1717 114.796 61.8751 117.646 66.8219C120.496 71.7687 123.182 76.7154 125.543 81.5C123.182 86.3657 120.496 91.3936 117.646 96.3403C114.796 101.287 111.784 106.072 108.853 110.532C103.398 110.937 97.7805 111.1 92 111.1C86.3009 111.1 80.6832 110.937 75.3097 110.613C72.2159 106.072 69.2035 101.287 66.354 96.4214C63.5044 91.3935 60.8991 86.4468 58.4566 81.5811ZM54.3044 90.7448C55.9327 93.9075 57.7239 97.0702 59.515 100.233C61.3876 103.477 63.3416 106.558 65.2956 109.64C59.2708 108.991 53.5717 108.099 48.3611 106.964C49.9894 101.693 51.9434 96.2592 54.3044 90.7448ZM54.3044 72.3363C52.0248 66.903 50.0708 61.6319 48.4425 56.4418C53.7345 55.3065 59.2708 54.3333 65.1327 53.6035C63.1788 56.604 61.3062 59.6856 59.515 62.8483C57.7239 66.011 55.9327 69.1736 54.3044 72.3363ZM124.485 100.152C126.358 96.908 128.149 93.6642 129.858 90.4204C132.301 96.0159 134.418 101.368 136.046 106.558C130.673 107.775 124.973 108.748 118.867 109.478C120.74 106.477 122.612 103.396 124.485 100.152ZM129.696 72.3363C128.067 69.1736 126.276 66.011 124.404 62.7672C122.612 59.6045 120.74 56.604 118.786 53.6035C124.648 54.3333 130.265 55.3065 135.558 56.5229C134.011 61.6319 132.057 66.903 129.696 72.3363ZM92.0814 31.3836C95.7451 35.2761 99.3274 39.6552 102.91 44.4398C99.3274 44.2776 95.6637 44.1965 92 44.1965C88.3363 44.1965 84.754 44.2776 81.1717 44.4398C84.754 39.7363 88.4177 35.3572 92.0814 31.3836ZM49.6637 9.0826C55.8513 5.51444 69.4478 10.6234 83.777 23.2741C84.6726 24.0851 85.6496 24.896 86.5451 25.7881C81.1717 31.4647 75.8796 38.0333 70.9133 45.0886C62.2832 45.8995 53.9788 47.197 46.3257 48.9C45.8372 46.9537 45.4301 45.0886 45.023 43.2234C41.6035 25.707 43.8832 12.4075 49.6637 9.0826ZM40.708 105.017C39.1611 104.531 37.6142 104.125 36.1487 103.639C27.1929 100.557 19.7841 96.5836 14.6549 92.2856C10.0956 88.3931 7.81593 84.5005 7.81593 81.4189C7.81593 74.7692 17.8301 66.2542 34.4389 60.4154C36.4743 59.6856 38.5911 59.0368 40.7894 58.4692C43.069 65.9299 46.0814 73.7149 49.7451 81.5811C46.0814 89.5284 43.069 97.4756 40.708 105.017ZM83.2885 140.699C76.1239 146.943 68.9593 151.322 62.6903 153.512C56.9911 155.539 52.5133 155.539 49.8265 153.999C44.046 150.674 41.6035 137.78 44.9416 120.506C45.3487 118.56 45.7558 116.533 46.2442 114.424C53.8159 116.046 62.1204 117.263 71.0761 117.993C76.2053 125.129 81.4973 131.698 86.8708 137.455C85.6496 138.591 84.5097 139.726 83.2885 140.699ZM92.3257 131.86C88.5805 127.886 84.9168 123.426 81.2531 118.641C84.754 118.803 88.3363 118.885 92 118.885C95.7451 118.885 99.4903 118.803 103.073 118.641C99.4903 123.507 95.908 127.886 92.3257 131.86ZM140.035 142.726C138.977 148.646 136.697 152.539 134.011 154.08C128.23 157.404 115.855 153.106 102.421 141.591C100.874 140.294 99.3274 138.915 97.7805 137.374C102.991 131.698 108.12 125.129 113.168 117.911C122.042 117.101 130.428 115.803 138.081 114.1C138.488 115.641 138.814 117.101 139.058 118.56C140.931 127.805 141.257 136.239 140.035 142.726ZM146.711 103.639C145.735 103.963 144.676 104.288 143.618 104.612C141.257 97.2323 138.163 89.4473 134.336 81.4189C138 73.5528 141.012 65.8488 143.292 58.5503C145.165 59.1179 147.037 59.6856 148.747 60.2533C165.763 66.0921 176.184 74.6881 176.184 81.3378C176.103 88.4741 164.867 97.6378 146.711 103.639ZM75.554 81.3378C75.554 72.3363 82.8814 64.9567 92 64.9567C101.037 64.9567 108.446 72.2552 108.446 81.3378C108.446 90.3393 101.119 97.7189 92 97.7189C82.8814 97.7189 75.554 90.4204 75.554 81.3378Z" fill="#848EC6"/>
</svg>
