<svg width="160" height="160" viewBox="0 0 160 160" fill="none" xmlns="http://www.w3.org/2000/svg">
<g clip-path="url(#clip0_1_67)">
<path d="M144.375 0H15.625C7 0 0 7 0 15.625V144.375C0 153 7 160 15.625 160H144.375C153 160 160 153 160 144.375V15.625C160 7 153 0 144.375 0ZM92.8125 88.75H72.8125V145.938H56.875V88.75H36.875V75.9375H92.8125V88.75ZM144.375 135.656C143.125 138.469 140.969 140.562 138.438 142.219C135.938 143.75 133.125 144.938 129.688 145.656C126.25 146.375 122.812 146.719 119.062 146.719C115.312 146.719 111.562 146.406 108.125 145.75C104.688 145.094 101.594 144.125 99.0625 142.812V127.812C98.875 127.656 98.6562 127.5 98.4688 127.344L99.0625 127.219V127.844C101.719 129.938 104.656 131.562 107.844 132.688C110.969 133.875 114.406 134.469 117.844 134.469C120.031 134.469 121.688 134.281 123.156 133.938C124.688 133.562 125.906 133.062 126.906 132.438C127.906 131.812 128.656 131.062 129.125 130.188C129.594 129.312 129.844 128.375 129.844 127.375C129.844 125.938 129.438 124.688 128.656 123.625C127.938 122.562 126.875 121.562 125.531 120.656C124.281 119.75 122.719 118.875 120.844 118.031C118.969 117.188 117.063 116.312 114.906 115.438C109.594 112.938 105.406 110.438 102.719 107C100 103.875 98.6562 99.8125 98.6562 95.125C98.6562 91.375 99.375 88.375 100.844 85.75C102.406 82.9375 104.25 80.875 106.781 79.1875C109.281 77.4688 112.094 76.2188 115.531 75.4375C118.969 74.6562 122.406 74.25 126.156 74.25C129.906 74.25 133.031 74.4688 135.844 74.9062C138.656 75.3438 141.281 76.0312 143.656 76.9375V91.625C142.562 90.8125 141.281 90.0938 139.906 89.4688C138.438 88.8438 137 88.3438 135.531 87.9375C134.062 87.5312 132.594 87.2188 131.156 87.0312C129.781 86.8438 128.406 86.75 127.094 86.75C125.188 86.75 123.562 86.9062 122.094 87.25C120.594 87.5938 119.344 88.0625 118.344 88.6875C117.344 89.3125 116.562 90.0312 116 90.9062C115.438 91.7812 115.156 92.75 115.156 93.8125C115.156 94.9688 115.469 96 116.094 96.9375C116.719 97.8438 117.594 98.7188 118.75 99.5625C119.781 100.375 121.188 101.188 122.812 102C124.688 102.812 126.375 103.625 128.438 104.469C131.25 105.656 133.75 106.969 135.938 108.219C138.125 109.469 139.969 110.937 141.562 112.594C143.25 114.156 144.469 116.031 145.312 118.219C146.156 120.406 146.594 122.875 146.594 125.719C146.594 129.719 145.625 132.844 144.375 135.656Z" fill="#848EC6"/>
</g>
<defs>
<clipPath id="clip0_1_67">
<rect width="160" height="160" fill="white"/>
</clipPath>
</defs>
</svg>
